<!-- Generated by IcoMoon.io -->
<svg version="1.1" xmlns="http://www.w3.org/2000/svg" width="32" height="32" viewBox="0 0 32 32">
<title>img-2</title>
<path fill="#16880b" d="M9.422 14.584c0.077 0.319 0.609 1.257 0.962 1.697 2.717 3.378 7.891 3.158 10.298-0.437 0.25-0.373 0.661-1.195 0.661-1.321 0-0.015-2.687-0.026-5.971-0.026h-5.972l0.021 0.088z"></path>
<path fill="#f8f8f8" d="M13.776 0.448c-0.011 0.018-0.112 0.032-0.224 0.032s-0.213 0.014-0.224 0.032c-0.011 0.018-0.091 0.032-0.178 0.032s-0.158 0.014-0.158 0.032c0 0.018-0.058 0.032-0.128 0.032s-0.128 0.014-0.128 0.032c0 0.018-0.040 0.032-0.088 0.032-0.093-0-0.492 0.085-0.6 0.127-0.035 0.014-0.129 0.043-0.208 0.065-0.148 0.040-0.262 0.082-0.36 0.132-0.031 0.016-0.085 0.028-0.12 0.028s-0.064 0.014-0.064 0.032c0 0.018-0.043 0.032-0.096 0.032s-0.096 0.014-0.096 0.032c0 0.018-0.029 0.032-0.064 0.032s-0.064 0.014-0.064 0.032c0 0.018-0.043 0.032-0.096 0.032s-0.096 0.014-0.096 0.032c0 0.018-0.029 0.032-0.064 0.032s-0.064 0.014-0.064 0.032c0 0.018-0.029 0.032-0.064 0.032s-0.064 0.014-0.064 0.032c0 0.018-0.028 0.032-0.062 0.032s-0.071 0.014-0.082 0.032c-0.011 0.018-0.048 0.032-0.082 0.032s-0.062 0.014-0.062 0.032c0 0.018-0.022 0.032-0.048 0.032s-0.048 0.014-0.048 0.032c0 0.018-0.029 0.032-0.064 0.032s-0.064 0.014-0.064 0.032c0 0.018-0.022 0.032-0.048 0.032s-0.048 0.014-0.048 0.032c0 0.018-0.029 0.032-0.064 0.032s-0.064 0.014-0.064 0.032c0 0.018-0.029 0.032-0.064 0.032s-0.064 0.014-0.064 0.032c0 0.018-0.029 0.032-0.064 0.032s-0.064 0.014-0.064 0.032c0 0.018-0.029 0.032-0.064 0.032s-0.064 0.011-0.064 0.024c0 0.013-0.083 0.067-0.184 0.119s-0.209 0.118-0.24 0.147c-0.031 0.028-0.096 0.072-0.144 0.097s-0.12 0.078-0.161 0.117-0.087 0.072-0.103 0.072c-0.016 0-0.065 0.036-0.109 0.080s-0.095 0.080-0.114 0.080c-0.019 0-0.079 0.043-0.134 0.096s-0.12 0.096-0.144 0.096c-0.024 0-0.043 0.011-0.043 0.025s-0.044 0.051-0.098 0.083c-0.054 0.032-0.162 0.121-0.239 0.199s-0.149 0.141-0.158 0.141c-0.053 0-1.136 1.072-1.136 1.124 0 0.019-0.040 0.072-0.088 0.119s-0.145 0.157-0.215 0.245-0.138 0.165-0.152 0.171c-0.014 0.006-0.025 0.028-0.025 0.048s-0.058 0.102-0.128 0.18c-0.070 0.079-0.127 0.158-0.127 0.177s-0.029 0.055-0.064 0.080-0.064 0.069-0.064 0.096c0 0.027-0.029 0.071-0.064 0.096s-0.064 0.069-0.064 0.096c0 0.027-0.029 0.071-0.064 0.096s-0.064 0.065-0.064 0.088c0 0.023-0.029 0.073-0.064 0.111s-0.082 0.109-0.104 0.159c-0.022 0.050-0.051 0.090-0.064 0.090s-0.024 0.029-0.024 0.064-0.013 0.064-0.028 0.064c-0.036 0-0.324 0.578-0.324 0.65 0 0.030-0.014 0.054-0.032 0.054s-0.032 0.029-0.032 0.064c0 0.035-0.014 0.064-0.032 0.064s-0.032 0.029-0.032 0.064c0 0.035-0.011 0.064-0.024 0.064-0.029 0-0.104 0.155-0.104 0.214 0 0.023-0.014 0.042-0.032 0.042s-0.032 0.028-0.032 0.062c0 0.034-0.014 0.071-0.032 0.082s-0.032 0.048-0.032 0.082c0 0.034-0.014 0.062-0.032 0.062s-0.032 0.028-0.032 0.062c0 0.034-0.014 0.071-0.032 0.082s-0.032 0.055-0.032 0.098c0 0.043-0.014 0.078-0.032 0.078s-0.032 0.043-0.032 0.096c0 0.053-0.014 0.096-0.032 0.096s-0.032 0.035-0.032 0.078c0 0.043-0.014 0.087-0.032 0.098s-0.032 0.062-0.032 0.114c0 0.052-0.014 0.094-0.032 0.094s-0.032 0.043-0.032 0.096c0 0.053-0.014 0.096-0.032 0.096s-0.032 0.042-0.032 0.094c0 0.052-0.013 0.102-0.028 0.112s-0.036 0.064-0.046 0.122-0.033 0.173-0.052 0.256c-0.019 0.084-0.049 0.22-0.067 0.304-0.186 0.837-0.263 3.38-0.127 4.184 0.021 0.123 0.052 0.303 0.069 0.4s0.039 0.234 0.049 0.304 0.030 0.142 0.046 0.158c0.016 0.017 0.029 0.085 0.029 0.152s0.014 0.122 0.032 0.122c0.018 0 0.032 0.050 0.032 0.11s0.014 0.119 0.032 0.13c0.018 0.011 0.032 0.050 0.032 0.088 0 0.072 0.053 0.26 0.1 0.352 0.015 0.031 0.028 0.084 0.028 0.118s0.014 0.071 0.032 0.082c0.018 0.011 0.032 0.048 0.032 0.082s0.014 0.091 0.032 0.126c0.018 0.035 0.046 0.092 0.064 0.127s0.032 0.085 0.032 0.112c0 0.027 0.014 0.048 0.032 0.048s0.032 0.043 0.032 0.096c0 0.053 0.014 0.096 0.032 0.096s0.032 0.029 0.032 0.064c0 0.035 0.014 0.064 0.032 0.064s0.032 0.032 0.033 0.072c0 0.040 0.029 0.108 0.063 0.152s0.063 0.098 0.063 0.12c0 0.022 0.015 0.040 0.033 0.040s0.032 0.043 0.032 0.096c0 0.053 0.014 0.096 0.032 0.096s0.032 0.028 0.032 0.061c0 0.034 0.011 0.066 0.024 0.072s0.067 0.1 0.12 0.21c0.053 0.11 0.107 0.2 0.12 0.2s0.024 0.029 0.024 0.065 0.014 0.064 0.032 0.064c0.018 0 0.032 0.029 0.032 0.064s0.013 0.064 0.028 0.064c0.016 0 0.046 0.043 0.068 0.096s0.052 0.096 0.068 0.096c0.015 0 0.028 0.022 0.028 0.049s0.029 0.080 0.064 0.118c0.035 0.038 0.064 0.088 0.064 0.111s0.014 0.042 0.032 0.042 0.032 0.019 0.032 0.042 0.029 0.073 0.064 0.111 0.064 0.084 0.064 0.102c0 0.018 0.014 0.033 0.032 0.033s0.032 0.022 0.032 0.048c0 0.026 0.014 0.048 0.032 0.048s0.032 0.016 0.032 0.035c0 0.019 0.043 0.075 0.096 0.125s0.096 0.11 0.096 0.134c0 0.024 0.029 0.065 0.064 0.090s0.064 0.062 0.064 0.081c0 0.019 0.026 0.063 0.057 0.097s0.117 0.143 0.189 0.241c0.073 0.098 0.151 0.2 0.175 0.225s0.092 0.11 0.153 0.189c0.061 0.079 0.122 0.148 0.136 0.154s0.025 0.025 0.025 0.043c0 0.018 0.043 0.073 0.096 0.122s0.096 0.107 0.096 0.127c0 0.021 0.058 0.093 0.128 0.161s0.128 0.14 0.128 0.161c0 0.021 0.043 0.078 0.096 0.127s0.096 0.103 0.096 0.119c0 0.016 0.026 0.057 0.057 0.091s0.1 0.12 0.152 0.19 0.109 0.143 0.127 0.162c0.018 0.019 0.068 0.082 0.112 0.14s0.141 0.168 0.216 0.245c0.075 0.077 0.136 0.156 0.136 0.176s0.043 0.076 0.096 0.126c0.053 0.049 0.096 0.107 0.096 0.128s0.043 0.079 0.096 0.128c0.053 0.049 0.096 0.102 0.096 0.117s0.032 0.065 0.072 0.111c0.040 0.046 0.13 0.166 0.2 0.267s0.16 0.217 0.2 0.258c0.040 0.042 0.072 0.089 0.072 0.104s0.040 0.070 0.088 0.122c0.049 0.051 0.124 0.143 0.166 0.205s0.104 0.135 0.136 0.164 0.058 0.061 0.058 0.072c0 0.024 0.128 0.173 0.28 0.328 0.057 0.058 0.104 0.114 0.104 0.124s0.032 0.053 0.072 0.096c0.117 0.125 0.152 0.172 0.152 0.202 0 0.016 0.043 0.074 0.096 0.129s0.096 0.112 0.096 0.126c0 0.014 0.058 0.089 0.128 0.167s0.128 0.155 0.128 0.171c0 0.016 0.026 0.053 0.058 0.081s0.093 0.102 0.136 0.164c0.098 0.14 0.155 0.212 0.247 0.307 0.040 0.041 0.072 0.087 0.072 0.102s0.026 0.055 0.057 0.090c0.031 0.034 0.092 0.112 0.134 0.174s0.086 0.119 0.097 0.128c0.010 0.009 0.090 0.11 0.176 0.224s0.183 0.231 0.215 0.26c0.032 0.028 0.057 0.063 0.057 0.077s0.058 0.080 0.128 0.147c0.070 0.067 0.128 0.138 0.128 0.158s0.043 0.077 0.096 0.126 0.096 0.104 0.096 0.121c0 0.017 0.058 0.091 0.128 0.163s0.128 0.148 0.128 0.167c0 0.019 0.043 0.075 0.096 0.125s0.096 0.103 0.096 0.119c0 0.016 0.050 0.088 0.112 0.16s0.112 0.14 0.112 0.151 0.036 0.056 0.080 0.1c0.044 0.044 0.080 0.092 0.080 0.107s0.043 0.073 0.096 0.13c0.053 0.057 0.096 0.115 0.096 0.13s0.050 0.078 0.112 0.14c0.062 0.062 0.112 0.125 0.112 0.141s0.058 0.089 0.128 0.161 0.128 0.146 0.128 0.164c0 0.018 0.014 0.032 0.032 0.032s0.032 0.016 0.032 0.035c0 0.019 0.043 0.075 0.096 0.125s0.096 0.099 0.096 0.11c0 0.023 0.042 0.077 0.152 0.194 0.040 0.042 0.072 0.094 0.072 0.114s0.043 0.077 0.096 0.126 0.096 0.104 0.096 0.121c0 0.017 0.058 0.091 0.128 0.163s0.128 0.148 0.128 0.167c0 0.019 0.043 0.075 0.096 0.125s0.096 0.099 0.096 0.111c0 0.012 0.043 0.067 0.096 0.123s0.096 0.113 0.096 0.126c0 0.013 0.062 0.088 0.139 0.168 0.142 0.148 0.342 0.207 0.342 0.1 0-0.024 0.058-0.103 0.128-0.176s0.128-0.14 0.128-0.15c0-0.010 0.043-0.064 0.096-0.12s0.096-0.113 0.096-0.126c0-0.013 0.058-0.083 0.128-0.156s0.128-0.146 0.128-0.163c0-0.017 0.043-0.072 0.096-0.121s0.096-0.106 0.096-0.125c0-0.020 0.045-0.082 0.099-0.139s0.122-0.147 0.149-0.2 0.076-0.115 0.109-0.138c0.033-0.023 0.059-0.055 0.059-0.072s0.058-0.090 0.128-0.162c0.070-0.073 0.128-0.145 0.128-0.16s0.058-0.087 0.128-0.16c0.070-0.073 0.128-0.146 0.128-0.163s0.043-0.072 0.096-0.121c0.053-0.049 0.096-0.103 0.096-0.12s0.043-0.076 0.096-0.131c0.053-0.055 0.096-0.108 0.096-0.116 0-0.025 0.296-0.411 0.359-0.468 0.032-0.028 0.057-0.070 0.057-0.091s0.043-0.080 0.096-0.129 0.096-0.107 0.096-0.127 0.058-0.093 0.128-0.161 0.128-0.14 0.128-0.161 0.043-0.078 0.096-0.127 0.096-0.106 0.096-0.126c0-0.020 0.058-0.089 0.128-0.154s0.128-0.131 0.128-0.147c0-0.016 0.026-0.053 0.058-0.081s0.1-0.109 0.152-0.179c0.123-0.166 0.169-0.223 0.294-0.364 0.057-0.064 0.104-0.135 0.104-0.157s0.015-0.040 0.033-0.040c0.018 0 0.032-0.019 0.032-0.043s0.043-0.088 0.096-0.144 0.096-0.109 0.096-0.118c0-0.010 0.043-0.064 0.096-0.12s0.096-0.114 0.096-0.127c0-0.014 0.051-0.076 0.112-0.137s0.112-0.124 0.112-0.139c0-0.015 0.050-0.082 0.112-0.149s0.112-0.134 0.112-0.149c0-0.015 0.032-0.062 0.072-0.104 0.124-0.133 0.152-0.172 0.152-0.215 0-0.023 0.043-0.075 0.096-0.117s0.096-0.088 0.096-0.103c0-0.015 0.086-0.117 0.192-0.227s0.192-0.21 0.192-0.224c0-0.013 0.058-0.085 0.128-0.159s0.128-0.147 0.128-0.162c0-0.015 0.043-0.072 0.096-0.128s0.096-0.113 0.096-0.129c0-0.030 0.035-0.077 0.152-0.202 0.040-0.042 0.072-0.088 0.072-0.102s0.042-0.075 0.093-0.135c0.051-0.060 0.112-0.146 0.136-0.192s0.097-0.136 0.163-0.2c0.066-0.065 0.12-0.134 0.12-0.155s0.043-0.078 0.096-0.127c0.053-0.049 0.096-0.107 0.096-0.127s0.054-0.091 0.121-0.155c0.066-0.065 0.178-0.189 0.248-0.277s0.153-0.188 0.183-0.222c0.031-0.034 0.056-0.080 0.056-0.101s0.043-0.072 0.096-0.114 0.096-0.094 0.096-0.116 0.058-0.099 0.128-0.172 0.128-0.146 0.128-0.163c0-0.017 0.043-0.072 0.096-0.121s0.096-0.104 0.096-0.122c0-0.018 0.047-0.083 0.104-0.145 0.154-0.166 0.344-0.397 0.344-0.418 0-0.010 0.028-0.051 0.062-0.091s0.092-0.107 0.128-0.149c0.036-0.042 0.066-0.087 0.066-0.1s0.050-0.078 0.112-0.145c0.062-0.067 0.112-0.138 0.112-0.157s0.029-0.055 0.064-0.081 0.064-0.069 0.064-0.096c0-0.027 0.029-0.071 0.064-0.096s0.064-0.061 0.064-0.080c0-0.019 0.029-0.055 0.064-0.080s0.064-0.069 0.064-0.096c0-0.027 0.029-0.071 0.064-0.096s0.064-0.069 0.064-0.096c0-0.027 0.029-0.071 0.064-0.096s0.064-0.072 0.064-0.103c0-0.031 0.014-0.057 0.032-0.057s0.032-0.026 0.032-0.057c0-0.031 0.029-0.078 0.064-0.103s0.064-0.072 0.064-0.103c0-0.031 0.014-0.057 0.032-0.057s0.032-0.029 0.032-0.064c0-0.035 0.013-0.064 0.030-0.064s0.040-0.032 0.052-0.072c0.012-0.040 0.049-0.106 0.082-0.148s0.060-0.103 0.060-0.136c0-0.033 0.014-0.060 0.032-0.060s0.032-0.029 0.032-0.064c0-0.035 0.014-0.064 0.032-0.064s0.032-0.029 0.032-0.064c0-0.035 0.014-0.064 0.032-0.064s0.032-0.029 0.032-0.064c0-0.035 0.014-0.064 0.032-0.064s0.032-0.020 0.032-0.045c0-0.025 0.043-0.127 0.096-0.227s0.096-0.21 0.096-0.243c0-0.033 0.014-0.061 0.032-0.061s0.032-0.028 0.032-0.062c0-0.034 0.014-0.071 0.032-0.082s0.032-0.055 0.032-0.098c0-0.043 0.014-0.078 0.032-0.078s0.032-0.035 0.032-0.078c0-0.043 0.014-0.087 0.032-0.098s0.032-0.055 0.032-0.098c0-0.043 0.014-0.078 0.032-0.078s0.032-0.043 0.032-0.096c0-0.053 0.014-0.096 0.032-0.096s0.032-0.042 0.032-0.094c0-0.052 0.014-0.103 0.032-0.114s0.032-0.069 0.032-0.13c0-0.061 0.012-0.11 0.027-0.11s0.028-0.044 0.030-0.098c0.002-0.054 0.020-0.119 0.040-0.144s0.030-0.065 0.021-0.090c-0.009-0.024 0.002-0.081 0.025-0.125s0.050-0.136 0.059-0.204 0.041-0.282 0.070-0.475c0.029-0.194 0.065-0.489 0.080-0.656 0.033-0.357 0.033-2.365-0.001-2.736-0.039-0.436-0.095-0.858-0.13-0.992-0.018-0.070-0.039-0.164-0.046-0.208s-0.026-0.134-0.043-0.2-0.022-0.12-0.012-0.12c0.010 0 0.002-0.017-0.019-0.038s-0.038-0.085-0.038-0.142c0-0.057-0.014-0.113-0.032-0.124s-0.032-0.069-0.032-0.13c0-0.061-0.014-0.11-0.032-0.11s-0.032-0.042-0.032-0.093c0-0.051-0.014-0.098-0.031-0.104s-0.035-0.059-0.039-0.117c-0.004-0.059-0.019-0.113-0.033-0.122s-0.025-0.044-0.025-0.078c0-0.060-0.012-0.092-0.091-0.245-0.020-0.039-0.037-0.101-0.037-0.136s-0.014-0.064-0.032-0.064c-0.018 0-0.032-0.028-0.032-0.062s-0.014-0.071-0.032-0.082c-0.018-0.011-0.032-0.055-0.032-0.098s-0.014-0.078-0.032-0.078c-0.018 0-0.032-0.029-0.032-0.064s-0.014-0.064-0.032-0.064c-0.018 0-0.032-0.022-0.032-0.048s-0.014-0.048-0.032-0.048c-0.018 0-0.032-0.043-0.032-0.096s-0.014-0.096-0.032-0.096c-0.018 0-0.032-0.029-0.032-0.064s-0.014-0.064-0.032-0.064c-0.018 0-0.032-0.029-0.032-0.064s-0.011-0.064-0.024-0.064c-0.013 0-0.043-0.047-0.065-0.104s-0.068-0.154-0.101-0.216c-0.033-0.062-0.1-0.191-0.15-0.288s-0.116-0.204-0.147-0.238c-0.031-0.034-0.057-0.081-0.057-0.104s-0.014-0.042-0.032-0.042-0.032-0.026-0.032-0.057c0-0.031-0.029-0.078-0.064-0.103s-0.064-0.069-0.064-0.096c0-0.027-0.029-0.071-0.064-0.096s-0.064-0.064-0.064-0.087c0-0.022-0.051-0.095-0.114-0.161s-0.138-0.16-0.167-0.208-0.064-0.088-0.078-0.088c-0.014 0-0.025-0.022-0.025-0.048s-0.014-0.048-0.032-0.048c-0.018 0-0.032-0.016-0.032-0.036s-0.025-0.060-0.056-0.088c-0.031-0.028-0.099-0.109-0.15-0.18s-0.102-0.135-0.112-0.144c-0.010-0.009-0.060-0.072-0.111-0.141-0.088-0.118-0.706-0.742-1.025-1.035-0.081-0.075-0.172-0.136-0.2-0.136s-0.043-0.009-0.031-0.021c0.033-0.033-0.376-0.363-0.449-0.363-0.015 0-0.048-0.029-0.073-0.064s-0.062-0.064-0.082-0.064c-0.020 0-0.081-0.043-0.137-0.096s-0.119-0.096-0.142-0.096c-0.023 0-0.062-0.029-0.087-0.064s-0.068-0.064-0.095-0.064c-0.027 0-0.067-0.029-0.089-0.064s-0.060-0.064-0.084-0.064c-0.024 0-0.062-0.021-0.083-0.048s-0.106-0.080-0.188-0.12c-0.082-0.040-0.153-0.083-0.159-0.096s-0.038-0.024-0.072-0.024c-0.034 0-0.061-0.014-0.061-0.032s-0.029-0.032-0.064-0.032c-0.035 0-0.064-0.014-0.064-0.032s-0.019-0.032-0.042-0.032c-0.023 0-0.073-0.029-0.111-0.064s-0.091-0.064-0.118-0.064c-0.027 0-0.049-0.014-0.049-0.032s-0.029-0.032-0.064-0.032c-0.035 0-0.064-0.014-0.064-0.032s-0.029-0.032-0.064-0.032c-0.035 0-0.064-0.014-0.064-0.032s-0.029-0.032-0.064-0.032c-0.035 0-0.064-0.014-0.064-0.032s-0.036-0.032-0.080-0.032c-0.044 0-0.080-0.014-0.080-0.032s-0.029-0.032-0.064-0.032c-0.035 0-0.064-0.014-0.064-0.032s-0.029-0.032-0.064-0.032c-0.035 0-0.064-0.014-0.064-0.032s-0.043-0.032-0.096-0.032c-0.053 0-0.096-0.014-0.096-0.032s-0.029-0.032-0.064-0.032c-0.035 0-0.064-0.014-0.064-0.032s-0.043-0.032-0.096-0.032c-0.053 0-0.096-0.014-0.096-0.032s-0.043-0.032-0.096-0.032c-0.053 0-0.096-0.015-0.096-0.034s-0.012-0.027-0.026-0.018c-0.014 0.009-0.066-0.005-0.116-0.030s-0.116-0.046-0.148-0.046-0.066-0.013-0.076-0.028c-0.010-0.016-0.064-0.036-0.122-0.045s-0.198-0.040-0.312-0.069-0.276-0.061-0.36-0.071c-0.084-0.010-0.152-0.031-0.152-0.046s-0.072-0.028-0.16-0.028c-0.088 0-0.16-0.014-0.16-0.032s-0.072-0.032-0.16-0.032c-0.088 0-0.16-0.014-0.16-0.032s-0.090-0.032-0.206-0.032c-0.113 0-0.215-0.014-0.226-0.032-0.027-0.044-3.205-0.044-3.232 0zM16.144 5.983c2.296 0.288 4.445 1.932 5.155 3.945l0.042 0.12h-11.93l0.042-0.12c0.901-2.554 3.861-4.299 6.691-3.945zM15.994 10.578c1.067 0.402 1.504 1.626 0.927 2.601-0.112 0.189-0.486 0.581-0.555 0.581-0.022 0-0.046 0.011-0.052 0.024s-0.075 0.055-0.155 0.093c-1.325 0.635-2.825-0.542-2.527-1.983 0.217-1.052 1.364-1.691 2.361-1.316zM15.252 10.8c-0.043 0.033-0.077 0.037-0.119 0.014-0.080-0.043-0.214-0.005-0.256 0.072-0.025 0.047-0.054 0.058-0.114 0.043-0.064-0.016-0.1 0.002-0.184 0.093-0.057 0.062-0.129 0.113-0.16 0.113-0.076 0-0.147 0.077-0.147 0.159 0 0.041-0.036 0.089-0.092 0.121-0.13 0.075-0.179 0.159-0.127 0.222 0.034 0.041 0.030 0.058-0.022 0.103-0.113 0.096-0.149 0.186-0.104 0.259 0.032 0.051 0.032 0.077 0 0.128-0.050 0.080-0.051 0.176-0.002 0.254 0.027 0.043 0.029 0.082 0.006 0.134-0.035 0.079 0.012 0.211 0.102 0.286 0.027 0.022 0.040 0.065 0.030 0.098-0.025 0.080 0.037 0.186 0.131 0.221 0.048 0.018 0.078 0.055 0.078 0.097 0 0.085 0.072 0.158 0.157 0.158 0.040 0 0.084 0.036 0.113 0.092 0.052 0.101 0.107 0.132 0.237 0.132 0.053 0 0.102 0.026 0.128 0.068 0.037 0.059 0.062 0.065 0.186 0.048 0.105-0.014 0.157-0.007 0.192 0.028 0.067 0.067 0.16 0.059 0.238-0.019 0.049-0.049 0.077-0.058 0.102-0.032 0.059 0.059 0.209 0.042 0.246-0.029 0.023-0.043 0.068-0.064 0.137-0.065 0.11-0.001 0.178-0.042 0.234-0.144 0.019-0.035 0.063-0.068 0.096-0.075 0.087-0.016 0.173-0.101 0.173-0.17 0-0.033 0.034-0.075 0.076-0.095 0.092-0.042 0.163-0.164 0.137-0.233-0.011-0.029 0.014-0.085 0.060-0.135 0.078-0.084 0.108-0.236 0.047-0.236-0.049 0-0.038-0.083 0.016-0.128 0.064-0.053 0.061-0.189-0.006-0.262-0.041-0.045-0.045-0.068-0.016-0.097 0.059-0.059 0.044-0.152-0.040-0.251-0.049-0.058-0.071-0.116-0.060-0.157 0.017-0.065-0.114-0.224-0.184-0.224-0.017 0-0.030-0.034-0.030-0.075 0-0.091-0.092-0.181-0.184-0.181-0.039 0-0.076-0.027-0.088-0.065-0.027-0.085-0.153-0.166-0.219-0.141-0.032 0.012-0.091-0.013-0.151-0.063-0.109-0.092-0.135-0.098-0.22-0.052-0.040 0.022-0.076 0.017-0.118-0.015-0.033-0.025-0.096-0.046-0.14-0.046s-0.107 0.021-0.14 0.046zM15.436 10.948c0.011 0.055 0.022 0.246 0.025 0.424s0.011 0.281 0.018 0.228c0.008-0.053 0.027-0.11 0.043-0.126s0.030-0.063 0.030-0.102c0-0.039 0.014-0.081 0.032-0.092s0.032-0.048 0.032-0.082c0-0.034 0.013-0.088 0.030-0.118s0.037-0.081 0.047-0.112c0.010-0.031 0.034-0.056 0.055-0.056 0.039 0 0.030 0.103-0.035 0.384-0.045 0.196-0.070 0.378-0.044 0.321 0.012-0.026 0.034-0.062 0.049-0.080s0.086-0.125 0.157-0.238c0.264-0.416 0.334-0.387 0.111 0.046-0.191 0.369-0.178 0.392 0.083 0.149 0.335-0.312 0.483-0.344 0.209-0.045-0.398 0.434-0.398 0.436 0 0.231 0.476-0.245 0.498-0.176 0.038 0.116-0.157 0.1-0.279 0.188-0.271 0.196 0.015 0.015 0.274-0.037 0.453-0.091 0.119-0.036 0.27-0.039 0.27-0.005 0 0.031-0.121 0.083-0.4 0.17-0.322 0.101-0.324 0.126-0.008 0.126 0.284 0 0.459 0.040 0.424 0.096-0.011 0.018-0.179 0.032-0.394 0.033-0.399 0.001-0.406 0.017-0.054 0.125 0.539 0.166 0.528 0.257-0.016 0.134-0.355-0.080-0.349-0.083-0.144 0.058 0.106 0.073 0.235 0.153 0.288 0.179 0.105 0.051 0.204 0.175 0.139 0.175-0.048 0-0.37-0.154-0.48-0.23-0.188-0.129-0.192-0.058-0.008 0.135 0.427 0.445 0.401 0.555-0.035 0.147-0.294-0.275-0.301-0.268-0.112 0.107 0.173 0.344 0.176 0.353 0.129 0.353-0.030 0-0.388-0.512-0.425-0.608-0.031-0.081-0.027 0.076 0.005 0.179 0.118 0.385 0.122 0.708 0.005 0.445-0.031-0.070-0.075-0.193-0.096-0.272s-0.052-0.169-0.068-0.2c-0.016-0.031-0.031-0.095-0.035-0.144s-0.014 0.094-0.024 0.317c-0.027 0.598-0.107 0.614-0.149 0.029-0.025-0.347-0.035-0.35-0.099-0.026-0.010 0.049-0.030 0.096-0.046 0.106s-0.029 0.049-0.029 0.088-0.030 0.106-0.066 0.15l-0.066 0.080 0.020-0.203c0.011-0.112 0.034-0.239 0.050-0.282 0.035-0.091 0.038-0.313 0.004-0.232-0.048 0.113-0.341 0.54-0.38 0.555-0.071 0.027-0.048-0.042 0.118-0.359 0.162-0.311 0.182-0.38 0.075-0.27-0.401 0.412-0.704 0.582-0.387 0.218 0.075-0.086 0.177-0.201 0.227-0.254 0.131-0.14 0.067-0.136-0.204 0.012-0.259 0.142-0.384 0.186-0.384 0.133 0-0.038 0.265-0.229 0.318-0.229 0.019 0 0.034-0.014 0.034-0.032s0.019-0.032 0.042-0.032c0.023 0 0.070-0.027 0.105-0.059s0.084-0.069 0.11-0.080c0.054-0.025-0.12 0.004-0.305 0.050-0.512 0.127-0.553 0.038-0.056-0.124l0.376-0.122-0.352-0.008c-0.566-0.014-0.604-0.136-0.042-0.136 0.345 0 0.352-0.025 0.036-0.126-0.578-0.183-0.534-0.257 0.070-0.118 0.123 0.028 0.238 0.051 0.256 0.051s-0.1-0.086-0.261-0.19c-0.161-0.104-0.303-0.206-0.315-0.225-0.054-0.087 0.036-0.062 0.335 0.091 0.382 0.196 0.383 0.195 0.094-0.126-0.375-0.416-0.243-0.399 0.202 0.025 0.224 0.213 0.224 0.211 0.024-0.176-0.164-0.316-0.191-0.401-0.12-0.373 0.041 0.016 0.111 0.115 0.305 0.43l0.108 0.176-0.016-0.128c-0.009-0.070-0.033-0.205-0.053-0.298-0.083-0.387 0.010-0.379 0.129 0.010 0.022 0.070 0.051 0.157 0.065 0.192s0.031 0.1 0.037 0.144 0.022-0.076 0.036-0.268c0.032-0.446 0.081-0.573 0.128-0.336zM21.394 14.475c0.031 0.081-0.323 0.856-0.528 1.153-0.054 0.079-0.099 0.153-0.099 0.164s-0.041 0.073-0.090 0.138c-0.050 0.065-0.149 0.197-0.222 0.294-0.12 0.16-0.339 0.414-0.551 0.637-0.127 0.134-0.583 0.52-0.74 0.627-0.078 0.053-0.149 0.103-0.157 0.113-0.021 0.022-0.192 0.133-0.272 0.177-0.141 0.077-0.225 0.127-0.24 0.144-0.089 0.099-1.048 0.486-1.488 0.601-1.285 0.335-2.522 0.283-3.783-0.158-0.401-0.14-1.256-0.566-1.283-0.64-0.006-0.016-0.028-0.029-0.048-0.029-0.188-0.004-1.221-0.968-1.667-1.556-0.381-0.502-0.919-1.532-0.869-1.664 0.025-0.064 12.012-0.064 12.037 0z"></path>
<path fill="#f99c35" d="M14.752 5.952c-2.394 0.28-4.571 1.913-5.299 3.975l-0.042 0.12h11.93l-0.042-0.12c-0.449-1.273-1.753-2.68-3.087-3.332-1.041-0.509-2.419-0.765-3.459-0.643z"></path>
<path fill="#101085" d="M15.074 10.545c-0.553 0.1-1.055 0.489-1.279 0.991-0.024 0.053-0.055 0.12-0.070 0.15-0.291 0.577 0.073 1.636 0.7 2.038 1.387 0.89 3.141-0.46 2.616-2.013-0.283-0.835-1.104-1.322-1.967-1.166zM15.517 10.732c0.025 0.030 0.080 0.039 0.172 0.029 0.109-0.012 0.147-0.002 0.196 0.052 0.034 0.037 0.094 0.067 0.134 0.067 0.11 0 0.219 0.059 0.254 0.138 0.017 0.038 0.063 0.074 0.102 0.080 0.078 0.011 0.209 0.156 0.191 0.21-0.006 0.018 0.033 0.063 0.087 0.1 0.072 0.049 0.101 0.095 0.109 0.177 0.006 0.061 0.040 0.138 0.076 0.172 0.052 0.049 0.062 0.087 0.047 0.192-0.012 0.088-0.002 0.152 0.028 0.193 0.059 0.080 0.059 0.191-0.001 0.241-0.034 0.028-0.042 0.077-0.028 0.176 0.015 0.113 0.007 0.149-0.049 0.205-0.037 0.037-0.068 0.108-0.068 0.158 0 0.086-0.084 0.21-0.16 0.235-0.020 0.007-0.040 0.039-0.044 0.072-0.012 0.085-0.143 0.211-0.218 0.211-0.035 0-0.071 0.026-0.079 0.058-0.021 0.079-0.176 0.166-0.258 0.145-0.046-0.012-0.078 0.002-0.101 0.046-0.038 0.072-0.186 0.111-0.263 0.069-0.034-0.018-0.073-0.012-0.112 0.018-0.079 0.060-0.229 0.060-0.289-0-0.036-0.036-0.064-0.040-0.109-0.015-0.080 0.043-0.213 0.008-0.268-0.072-0.028-0.041-0.066-0.057-0.103-0.045-0.073 0.023-0.267-0.090-0.267-0.156 0-0.029-0.029-0.049-0.072-0.049-0.088-0.001-0.216-0.129-0.216-0.218 0-0.036-0.027-0.074-0.061-0.085-0.083-0.026-0.17-0.167-0.148-0.237 0.011-0.034-0.007-0.080-0.043-0.113-0.080-0.072-0.112-0.205-0.065-0.262 0.029-0.035 0.025-0.063-0.015-0.124-0.066-0.101-0.066-0.205 0.001-0.278 0.043-0.047 0.045-0.067 0.012-0.106-0.051-0.062-0.020-0.189 0.067-0.269 0.045-0.042 0.060-0.083 0.046-0.127-0.027-0.085 0.060-0.216 0.159-0.242 0.046-0.012 0.071-0.036 0.061-0.061-0.026-0.067 0.11-0.214 0.197-0.214 0.047 0 0.078-0.019 0.078-0.047 0-0.078 0.134-0.177 0.239-0.177 0.061 0 0.121-0.026 0.157-0.068 0.048-0.056 0.082-0.065 0.191-0.050 0.090 0.012 0.153 0.003 0.195-0.028 0.079-0.058 0.191-0.059 0.239-0.002zM15.38 11.367c-0.015 0.118-0.015 0.27-0 0.336l0.027 0.121 0.010-0.168c0.006-0.092 0.006-0.244 0-0.336l-0.010-0.168-0.027 0.215zM15.653 11.235c-0.003 0.046-0.015 0.093-0.027 0.105-0.044 0.044-0.105 0.263-0.104 0.373l0.001 0.112 0.046-0.128c0.025-0.070 0.046-0.165 0.047-0.21s0.016-0.097 0.035-0.116c0.019-0.019 0.028-0.076 0.021-0.126-0.013-0.088-0.014-0.088-0.018-0.009zM15.139 11.368c-0.004 0.111 0.066 0.376 0.099 0.376 0.039 0 0.027-0.096-0.037-0.288-0.045-0.136-0.060-0.156-0.062-0.088zM15.768 11.536c-0.121 0.207-0.175 0.397-0.071 0.248 0.052-0.074 0.239-0.421 0.239-0.443 0-0.055-0.067 0.022-0.168 0.195zM14.88 11.437c0 0.025 0.011 0.050 0.024 0.056s0.059 0.079 0.101 0.163c0.042 0.084 0.088 0.152 0.102 0.152s0.031 0.018 0.038 0.040 0.008 0.007 0.002-0.033c-0.023-0.137-0.267-0.483-0.267-0.378zM15.931 11.677c-0.242 0.228-0.296 0.358-0.060 0.145 0.132-0.119 0.342-0.366 0.311-0.366-0.009 0-0.122 0.099-0.251 0.221zM14.826 11.735c0.116 0.118 0.22 0.205 0.232 0.193 0.024-0.024-0.363-0.408-0.412-0.408-0.016 0 0.064 0.097 0.18 0.215zM14.631 11.856c0.118 0.079 0.236 0.144 0.261 0.144s0.053 0.018 0.061 0.040 0.026 0.029 0.040 0.016c0.033-0.031-0.046-0.090-0.31-0.231-0.29-0.154-0.31-0.142-0.052 0.031zM16.050 11.847c-0.19 0.096-0.274 0.16-0.274 0.206 0 0.014 0.017 0.007 0.038-0.014s0.058-0.038 0.082-0.038c0.034 0 0.262-0.136 0.357-0.213 0.063-0.051-0.049-0.018-0.203 0.060zM15.276 11.967c-0.326 0.132-0.222 0.609 0.133 0.609 0.103 0 0.303-0.187 0.303-0.283 0-0.233-0.233-0.408-0.436-0.326zM14.448 12.032c0.011 0.018 0.054 0.032 0.096 0.032s0.085 0.014 0.096 0.032c0.011 0.018 0.072 0.032 0.136 0.032 0.148 0 0.103-0.044-0.094-0.092-0.185-0.045-0.26-0.046-0.234-0.004zM16.040 12.043c-0.145 0.036-0.183 0.085-0.064 0.085 0.078-0.001 0.297-0.070 0.333-0.106 0.030-0.030-0.104-0.019-0.269 0.021zM14.448 12.256c-0.099 0.018-0.063 0.024 0.16 0.027 0.196 0.003 0.273-0.006 0.24-0.027-0.054-0.035-0.207-0.035-0.4 0zM15.92 12.256c-0.042 0.018 0.036 0.027 0.224 0.026 0.236-0.001 0.265-0.006 0.16-0.028-0.163-0.034-0.303-0.033-0.384 0.002zM14.634 12.429c-0.056 0.020-0.113 0.048-0.125 0.060s-0.067 0.024-0.122 0.025c-0.054 0.001-0.079 0.010-0.056 0.020 0.055 0.022 0.39-0.044 0.526-0.103l0.104-0.045-0.112 0.003c-0.062 0.001-0.158 0.019-0.214 0.040zM15.872 12.416c0.070 0.045 0.503 0.137 0.551 0.118 0.022-0.009 0.004-0.018-0.042-0.019s-0.093-0.012-0.105-0.024c-0.040-0.040-0.26-0.105-0.357-0.105-0.073 0-0.085 0.007-0.048 0.031zM14.736 12.608c-0.070 0.051-0.146 0.094-0.168 0.095s-0.040 0.016-0.040 0.033c0 0.018-0.024 0.032-0.053 0.032s-0.044 0.009-0.033 0.020c0.023 0.023 0.354-0.131 0.467-0.218 0.135-0.104-0.026-0.069-0.172 0.037zM15.824 12.545c0.025 0.041 0.319 0.191 0.374 0.191 0.022 0-0.034-0.050-0.126-0.112-0.158-0.107-0.292-0.149-0.248-0.079zM14.835 12.769c-0.104 0.106-0.18 0.201-0.17 0.211 0.022 0.022 0.334-0.265 0.378-0.348 0.057-0.106-0.020-0.055-0.209 0.137zM15.712 12.598c0 0.046 0.356 0.394 0.402 0.394 0.010 0-0.035-0.065-0.101-0.145-0.121-0.148-0.301-0.297-0.301-0.249zM15.11 12.69c-0.066 0.075-0.233 0.404-0.221 0.438 0.012 0.036 0.229-0.31 0.262-0.417 0.026-0.084 0.018-0.088-0.041-0.022zM15.637 12.696c-0.020 0.032 0.169 0.369 0.254 0.456 0.026 0.026-0.003-0.053-0.064-0.176-0.139-0.28-0.166-0.319-0.19-0.28zM15.38 12.84c-0.015 0.084-0.015 0.235 0 0.336l0.027 0.184 0.010-0.168c0.006-0.092 0.006-0.244-0-0.336l-0.010-0.168-0.027 0.152zM15.521 12.802c-0.001 0.063 0.034 0.214 0.077 0.336 0.066 0.185 0.079 0.204 0.080 0.118 0.001-0.057-0.013-0.104-0.031-0.104s-0.032-0.047-0.032-0.104c-0-0.057-0.021-0.162-0.047-0.232l-0.046-0.128-0.001 0.114zM15.175 12.912c-0.064 0.24-0.043 0.353 0.027 0.144 0.064-0.192 0.077-0.288 0.037-0.288-0.014 0-0.043 0.065-0.064 0.144z"></path>
<path fill="#9ea7c6" d="M15.152 10.484c-1.309 0.186-1.979 1.651-1.26 2.755 0.49 0.752 1.461 1.026 2.268 0.639 0.079-0.038 0.149-0.080 0.155-0.093s0.029-0.024 0.052-0.024c0.069 0 0.443-0.392 0.555-0.581 0.68-1.15-0.086-2.62-1.404-2.694-0.148-0.008-0.312-0.009-0.365-0.001zM15.695 10.544c1.139 0.203 1.753 1.412 1.259 2.48-0.603 1.306-2.513 1.302-3.14-0.007-0.189-0.394-0.232-1.046-0.088-1.332 0.015-0.029 0.046-0.097 0.070-0.15 0.321-0.718 1.114-1.132 1.899-0.992zM15.278 10.734c-0.042 0.031-0.105 0.040-0.195 0.028-0.109-0.015-0.143-0.006-0.191 0.050-0.036 0.042-0.096 0.068-0.157 0.068-0.105 0-0.239 0.099-0.239 0.177 0 0.028-0.031 0.047-0.078 0.047-0.087 0-0.222 0.147-0.197 0.214 0.010 0.025-0.015 0.050-0.061 0.061-0.1 0.025-0.186 0.156-0.159 0.242 0.014 0.044-0.001 0.085-0.046 0.127-0.086 0.080-0.118 0.208-0.067 0.269 0.032 0.039 0.030 0.059-0.012 0.106-0.067 0.074-0.067 0.177-0.001 0.278 0.040 0.061 0.043 0.089 0.015 0.124-0.048 0.057-0.015 0.19 0.065 0.262 0.037 0.033 0.054 0.079 0.043 0.113-0.022 0.070 0.065 0.211 0.148 0.237 0.034 0.011 0.061 0.049 0.061 0.085 0 0.089 0.128 0.217 0.216 0.218 0.043 0 0.072 0.020 0.072 0.049 0 0.066 0.194 0.179 0.267 0.156 0.038-0.012 0.075 0.004 0.103 0.045 0.056 0.079 0.188 0.115 0.268 0.072 0.046-0.024 0.073-0.020 0.109 0.015 0.060 0.060 0.209 0.060 0.289 0 0.039-0.030 0.079-0.036 0.112-0.018 0.077 0.041 0.224 0.003 0.263-0.069 0.023-0.043 0.055-0.058 0.101-0.046 0.082 0.022 0.238-0.066 0.258-0.145 0.008-0.032 0.044-0.058 0.079-0.058 0.075 0 0.206-0.126 0.218-0.211 0.005-0.033 0.025-0.065 0.044-0.072 0.075-0.025 0.16-0.149 0.16-0.235 0-0.050 0.031-0.121 0.068-0.158 0.056-0.056 0.064-0.092 0.049-0.205-0.014-0.099-0.006-0.148 0.028-0.176 0.060-0.050 0.060-0.161 0.001-0.241-0.031-0.042-0.040-0.105-0.028-0.193 0.014-0.105 0.005-0.143-0.047-0.192-0.036-0.033-0.070-0.111-0.076-0.172-0.008-0.082-0.037-0.128-0.109-0.177-0.054-0.036-0.093-0.081-0.087-0.1 0.018-0.054-0.114-0.199-0.191-0.21-0.039-0.006-0.085-0.042-0.102-0.080-0.034-0.079-0.144-0.138-0.254-0.138-0.040 0-0.101-0.030-0.134-0.067-0.049-0.054-0.087-0.064-0.196-0.052-0.092 0.010-0.147 0.001-0.172-0.029-0.047-0.057-0.16-0.056-0.239 0.002zM15.532 10.8c0.042 0.032 0.078 0.037 0.118 0.015 0.085-0.045 0.111-0.039 0.22 0.052 0.060 0.051 0.119 0.075 0.151 0.063 0.066-0.025 0.192 0.056 0.219 0.141 0.012 0.038 0.048 0.065 0.088 0.065 0.092 0 0.184 0.090 0.184 0.181 0 0.041 0.014 0.075 0.030 0.075 0.070 0 0.201 0.16 0.184 0.224-0.011 0.042 0.011 0.099 0.060 0.157 0.084 0.1 0.099 0.192 0.040 0.251-0.029 0.029-0.025 0.051 0.016 0.097 0.067 0.074 0.070 0.209 0.006 0.262-0.054 0.045-0.065 0.128-0.016 0.128 0.061 0 0.031 0.151-0.047 0.236-0.046 0.050-0.071 0.106-0.060 0.135 0.026 0.069-0.045 0.192-0.137 0.233-0.042 0.019-0.076 0.062-0.076 0.095 0 0.070-0.086 0.154-0.173 0.17-0.033 0.006-0.077 0.040-0.096 0.075-0.057 0.101-0.124 0.143-0.234 0.144-0.069 0.001-0.114 0.022-0.137 0.065-0.038 0.070-0.187 0.088-0.246 0.029-0.026-0.026-0.054-0.017-0.102 0.032-0.079 0.079-0.171 0.086-0.238 0.019-0.035-0.035-0.086-0.042-0.192-0.028-0.124 0.017-0.15 0.010-0.186-0.048-0.026-0.042-0.075-0.068-0.128-0.068-0.13 0-0.184-0.031-0.237-0.132-0.029-0.056-0.073-0.092-0.113-0.092-0.084 0-0.157-0.073-0.157-0.158 0-0.042-0.030-0.078-0.078-0.097-0.094-0.036-0.156-0.141-0.131-0.221 0.010-0.033-0.002-0.076-0.030-0.098-0.090-0.075-0.137-0.207-0.102-0.286 0.023-0.052 0.021-0.091-0.006-0.134-0.049-0.079-0.048-0.174 0.002-0.254 0.032-0.051 0.032-0.077-0-0.128-0.045-0.072-0.009-0.163 0.104-0.259 0.052-0.045 0.056-0.062 0.022-0.103-0.052-0.063-0.004-0.147 0.127-0.222 0.056-0.032 0.092-0.080 0.092-0.121 0-0.082 0.071-0.159 0.147-0.159 0.031 0 0.103-0.051 0.16-0.113 0.083-0.091 0.12-0.109 0.184-0.093 0.060 0.015 0.088 0.004 0.114-0.043 0.041-0.077 0.176-0.115 0.256-0.072 0.042 0.022 0.076 0.018 0.119-0.014 0.033-0.025 0.096-0.046 0.14-0.046s0.107 0.021 0.14 0.046zM15.348 10.904c-0.009 0.031-0.025 0.178-0.036 0.328-0.039 0.541-0.070 0.623-0.138 0.368-0.064-0.24-0.043-0.353 0.027-0.144 0.045 0.134 0.059 0.155 0.061 0.088 0.001-0.049-0.011-0.113-0.026-0.144s-0.045-0.113-0.067-0.184c-0.117-0.389-0.213-0.397-0.127-0.010 0.021 0.094 0.041 0.235 0.045 0.314s0.024 0.186 0.045 0.237c0.021 0.051 0.031 0.109 0.023 0.128s-0.016 0.010-0.017-0.021c-0.001-0.031-0.015-0.056-0.030-0.056s-0.061-0.068-0.104-0.152c-0.042-0.084-0.089-0.161-0.105-0.172s-0.021-0.040-0.013-0.064c0.010-0.028 0.042 0 0.087 0.076 0.072 0.12 0.097 0.144 0.097 0.092 0-0.039-0.32-0.527-0.364-0.555-0.082-0.053-0.049 0.060 0.107 0.363 0.091 0.177 0.158 0.329 0.148 0.339s0.012 0.059 0.048 0.109c0.113 0.158 0.016 0.1-0.193-0.116-0.219-0.227-0.232-0.272-0.026-0.096 0.193 0.165 0.182 0.113-0.015-0.072-0.437-0.411-0.555-0.417-0.188-0.010 0.289 0.32 0.288 0.322-0.094 0.126-0.3-0.154-0.389-0.178-0.335-0.091 0.012 0.020 0.154 0.121 0.315 0.225s0.278 0.19 0.261 0.19c-0.018 0-0.133-0.023-0.256-0.051-0.604-0.139-0.648-0.065-0.070 0.118 0.316 0.1 0.309 0.126-0.036 0.126-0.562 0-0.524 0.122 0.042 0.136l0.352 0.008-0.376 0.122c-0.497 0.162-0.456 0.251 0.056 0.124 0.185-0.046 0.36-0.074 0.305-0.050-0.026 0.012-0.075 0.048-0.11 0.080s-0.082 0.059-0.105 0.059c-0.023 0-0.042 0.014-0.042 0.032s-0.015 0.032-0.034 0.032c-0.053 0-0.318 0.191-0.318 0.229 0 0.053 0.125 0.009 0.384-0.133 0.27-0.149 0.335-0.152 0.204-0.012-0.543 0.582-0.402 0.614 0.16 0.037 0.106-0.109 0.087-0.040-0.075 0.27-0.166 0.318-0.189 0.386-0.118 0.359 0.039-0.015 0.332-0.443 0.38-0.555 0.034-0.080 0.031 0.141-0.004 0.232-0.017 0.043-0.039 0.17-0.050 0.282l-0.020 0.203 0.066-0.080c0.036-0.044 0.066-0.112 0.066-0.15s0.013-0.078 0.029-0.088c0.016-0.010 0.036-0.057 0.046-0.106 0.064-0.324 0.074-0.321 0.099 0.026 0.042 0.585 0.122 0.569 0.149-0.029 0.010-0.223 0.021-0.366 0.024-0.317s0.019 0.113 0.035 0.144 0.047 0.12 0.068 0.2c0.022 0.079 0.065 0.202 0.096 0.272 0.117 0.263 0.114-0.060-0.005-0.445-0.032-0.104-0.036-0.26-0.005-0.179 0.037 0.096 0.395 0.608 0.425 0.608 0.047 0 0.044-0.008-0.129-0.353-0.189-0.376-0.182-0.382 0.112-0.107 0.436 0.407 0.462 0.297 0.035-0.147-0.185-0.192-0.181-0.264 0.008-0.135 0.11 0.076 0.433 0.23 0.48 0.23 0.065 0-0.034-0.124-0.139-0.175-0.053-0.026-0.183-0.106-0.288-0.179-0.205-0.141-0.211-0.138 0.144-0.058 0.544 0.123 0.555 0.032 0.016-0.134-0.352-0.109-0.345-0.124 0.054-0.125 0.215-0 0.383-0.014 0.394-0.033 0.035-0.056-0.14-0.096-0.424-0.096-0.315 0-0.314-0.025 0.008-0.126 0.279-0.087 0.4-0.139 0.4-0.17 0-0.033-0.151-0.030-0.27 0.005-0.179 0.054-0.438 0.106-0.453 0.091-0.008-0.008 0.114-0.096 0.271-0.196 0.461-0.292 0.438-0.362-0.038-0.116-0.398 0.205-0.398 0.204-0-0.231 0.274-0.299 0.126-0.267-0.209 0.045-0.261 0.243-0.274 0.22-0.083-0.149 0.224-0.433 0.153-0.462-0.111-0.046-0.071 0.112-0.145 0.223-0.165 0.246s-0.029 0.058-0.022 0.079c0.007 0.021 0.054-0.034 0.104-0.121 0.111-0.194 0.108-0.19 0.129-0.169 0.017 0.017-0.135 0.323-0.223 0.449-0.058 0.083-0.050-0.223 0.013-0.487 0.065-0.272 0.075-0.384 0.036-0.384-0.020 0-0.045 0.025-0.055 0.056s-0.031 0.081-0.047 0.112c-0.016 0.031-0.030 0.084-0.030 0.118s-0.014 0.071-0.032 0.082c-0.018 0.011-0.032 0.052-0.032 0.092s-0.013 0.085-0.030 0.102c-0.016 0.017-0.036 0.074-0.043 0.126s-0.016-0.050-0.018-0.228c-0.007-0.443-0.058-0.659-0.112-0.468zM15.417 11.656l-0.010 0.168-0.027-0.121c-0.015-0.066-0.015-0.218 0-0.336l0.027-0.215 0.010 0.168c0.006 0.092 0.005 0.244-0 0.336zM15.65 11.37c-0.019 0.019-0.035 0.071-0.035 0.116s-0.021 0.139-0.047 0.21l-0.046 0.128-0.001-0.112c-0.001-0.109 0.060-0.329 0.104-0.373 0.012-0.012 0.024-0.059 0.027-0.105 0.005-0.079 0.005-0.079 0.018 0.009 0.008 0.051-0.002 0.107-0.021 0.126zM16.1 11.579c-0.133 0.167-0.356 0.366-0.382 0.34-0.019-0.019 0.426-0.463 0.464-0.463 0.009 0-0.028 0.056-0.082 0.123zM14.683 11.825c0.264 0.14 0.343 0.199 0.31 0.231-0.014 0.013-0.032 0.006-0.040-0.016s-0.035-0.040-0.061-0.040c-0.025 0-0.143-0.065-0.261-0.144-0.258-0.173-0.238-0.185 0.052-0.031zM16.253 11.787c-0.095 0.077-0.323 0.213-0.357 0.213-0.024 0-0.061 0.017-0.082 0.038s-0.038 0.027-0.038 0.014c0-0.060 0.439-0.326 0.477-0.289 0.007 0.007 0.007 0.018 0 0.024zM15.545 12c0.194 0.118 0.217 0.308 0.058 0.467-0.276 0.276-0.704-0.079-0.463-0.386 0.12-0.153 0.246-0.178 0.404-0.082zM14.682 12.036c0.197 0.048 0.242 0.092 0.094 0.092-0.064 0-0.125-0.014-0.136-0.032s-0.054-0.032-0.096-0.032c-0.042 0-0.085-0.014-0.096-0.032-0.026-0.042 0.049-0.040 0.234 0.004zM16.309 12.022c-0.036 0.036-0.255 0.105-0.333 0.106-0.119 0.001-0.081-0.049 0.064-0.085 0.165-0.040 0.299-0.051 0.269-0.021zM14.848 12.256c0.033 0.021-0.044 0.030-0.24 0.027-0.223-0.003-0.259-0.009-0.16-0.027 0.193-0.035 0.346-0.035 0.4 0zM16.304 12.254c0.105 0.022 0.076 0.027-0.16 0.028-0.188 0.001-0.266-0.008-0.224-0.026 0.081-0.035 0.221-0.036 0.384-0.002zM14.856 12.432c-0.136 0.059-0.471 0.124-0.526 0.103-0.024-0.009 0.002-0.018 0.056-0.020s0.109-0.013 0.122-0.025c0.043-0.043 0.228-0.098 0.34-0.1l0.112-0.003-0.104 0.045zM16.135 12.427c0.066 0.023 0.129 0.051 0.141 0.064s0.059 0.023 0.105 0.024c0.045 0.001 0.064 0.010 0.042 0.019-0.048 0.019-0.482-0.073-0.551-0.118-0.074-0.047 0.119-0.040 0.263 0.011zM14.908 12.571c-0.113 0.087-0.443 0.241-0.467 0.218-0.011-0.011 0.004-0.020 0.033-0.020s0.053-0.014 0.053-0.032 0.018-0.033 0.040-0.033c0.022-0.001 0.098-0.043 0.168-0.095 0.146-0.106 0.308-0.141 0.172-0.037zM16.073 12.624c0.169 0.114 0.162 0.152-0.011 0.063-0.052-0.027-0.113-0.039-0.134-0.027s-0.029 0.011-0.016-0.003c0.012-0.014-0.009-0.052-0.048-0.084-0.132-0.11 0.029-0.071 0.21 0.051zM15.044 12.632c-0.045 0.084-0.356 0.37-0.378 0.348-0.021-0.021 0.342-0.403 0.383-0.404 0.014-0 0.012 0.025-0.005 0.056zM16.013 12.847c0.066 0.080 0.111 0.145 0.101 0.145-0.046 0-0.401-0.349-0.402-0.394-0-0.048 0.18 0.101 0.301 0.249zM15.15 12.712c-0.033 0.106-0.25 0.452-0.262 0.417-0.017-0.052 0.224-0.482 0.274-0.488 0.006-0.001 0 0.031-0.012 0.071zM15.827 12.976c0.061 0.123 0.090 0.202 0.064 0.176-0.085-0.087-0.274-0.424-0.254-0.456 0.024-0.039 0.051 0 0.19 0.28zM15.417 13.192l-0.010 0.168-0.027-0.184c-0.015-0.101-0.015-0.252 0-0.336l0.027-0.152 0.010 0.168c0.006 0.092 0.006 0.244 0 0.336zM15.616 13.048c0 0.057 0.015 0.104 0.032 0.104s0.031 0.047 0.031 0.104c-0.001 0.087-0.014 0.068-0.080-0.118-0.043-0.122-0.078-0.273-0.077-0.336l0.001-0.114 0.046 0.128c0.025 0.070 0.046 0.175 0.047 0.232zM15.262 12.824c-0.001 0.031-0.028 0.135-0.061 0.232-0.070 0.209-0.091 0.096-0.027-0.144 0.038-0.143 0.091-0.197 0.087-0.088zM9.358 14.475c-0.050 0.131 0.488 1.162 0.869 1.664 0.447 0.588 1.479 1.552 1.667 1.556 0.020 0 0.042 0.014 0.048 0.029 0.028 0.074 0.882 0.5 1.283 0.64 1.261 0.441 2.498 0.493 3.783 0.158 0.44-0.114 1.399-0.502 1.488-0.601 0.015-0.017 0.099-0.067 0.24-0.144 0.080-0.044 0.251-0.155 0.272-0.177 0.009-0.009 0.080-0.060 0.157-0.113 0.157-0.106 0.613-0.493 0.74-0.627 0.212-0.224 0.431-0.477 0.551-0.637 0.072-0.097 0.172-0.229 0.222-0.294s0.090-0.127 0.090-0.138c0-0.011 0.044-0.085 0.099-0.164 0.204-0.297 0.559-1.072 0.528-1.153-0.025-0.064-12.012-0.064-12.037 0zM21.344 14.522c0 0.126-0.411 0.948-0.661 1.321-2.408 3.596-7.582 3.815-10.298 0.437-0.354-0.439-0.886-1.377-0.962-1.697l-0.021-0.088h5.972c3.284 0 5.971 0.012 5.971 0.026z"></path>
</svg>
