<!-- Generated by IcoMoon.io -->
<svg version="1.1" xmlns="http://www.w3.org/2000/svg" width="32" height="32" viewBox="0 0 32 32">
<title>img</title>
<path fill="#168909" d="M8.879 14.488c0.040 0.163 0.334 0.764 0.606 1.24 0.247 0.432 0.67 0.958 1.186 1.473 2.762 2.756 7.27 2.924 10.258 0.382 0.443-0.377 0.865-0.832 1.274-1.374 0.314-0.416 0.934-1.586 0.934-1.764 0-0.037-1.108-0.044-7.139-0.044h-7.14l0.022 0.088z"></path>
<path fill="#fb9b34" d="M15.344 4.099c-0.646 0.078-0.96 0.136-1.408 0.259-1.831 0.501-3.51 1.786-4.486 3.434-0.322 0.544-0.676 1.324-0.633 1.394 0.031 0.050 14.349 0.039 14.368-0.011 0.031-0.080-0.311-0.837-0.622-1.379-0.451-0.786-1.294-1.708-2.052-2.246-0.097-0.069-0.19-0.136-0.208-0.15-0.253-0.196-0.919-0.556-1.37-0.743-0.459-0.19-0.782-0.289-1.414-0.433-0.601-0.138-1.598-0.195-2.176-0.124z"></path>
<path fill="#f8f8f8" d="M14.432 0.819c-0.185 0.024-0.43 0.058-0.544 0.077s-0.262 0.042-0.328 0.052c-0.066 0.010-0.128 0.031-0.138 0.047s-0.066 0.029-0.126 0.029-0.117 0.014-0.128 0.032c-0.011 0.018-0.061 0.032-0.112 0.032s-0.101 0.014-0.112 0.032c-0.011 0.018-0.062 0.032-0.114 0.032s-0.094 0.014-0.094 0.032c0 0.018-0.043 0.032-0.096 0.032s-0.096 0.014-0.096 0.032c0 0.018-0.043 0.032-0.096 0.032s-0.096 0.014-0.096 0.032c0 0.018-0.043 0.032-0.096 0.032s-0.096 0.014-0.096 0.032c0 0.018-0.043 0.032-0.096 0.032s-0.096 0.014-0.096 0.032c0 0.018-0.029 0.032-0.064 0.032s-0.064 0.014-0.064 0.032c0 0.018-0.043 0.032-0.096 0.032s-0.096 0.014-0.096 0.032c0 0.018-0.029 0.032-0.064 0.032s-0.064 0.014-0.064 0.032c0 0.018-0.029 0.032-0.064 0.032s-0.064 0.014-0.064 0.032c0 0.018-0.036 0.032-0.080 0.032s-0.080 0.014-0.080 0.032c0 0.018-0.029 0.032-0.064 0.032s-0.064 0.014-0.064 0.032c0 0.018-0.035 0.032-0.078 0.032s-0.087 0.014-0.098 0.032c-0.011 0.018-0.048 0.032-0.082 0.032s-0.062 0.014-0.062 0.032c0 0.018-0.029 0.032-0.064 0.032s-0.064 0.014-0.064 0.032c0 0.018-0.022 0.032-0.049 0.032s-0.102 0.033-0.168 0.073c-0.066 0.040-0.159 0.093-0.207 0.117s-0.088 0.057-0.088 0.071c0 0.015-0.022 0.027-0.048 0.027s-0.048 0.014-0.048 0.032c0 0.018-0.026 0.032-0.057 0.032s-0.078 0.029-0.103 0.064-0.069 0.064-0.096 0.064c-0.027 0-0.071 0.029-0.096 0.064s-0.069 0.064-0.096 0.064c-0.027 0-0.071 0.029-0.096 0.064s-0.069 0.064-0.096 0.064c-0.027 0-0.071 0.029-0.096 0.064s-0.065 0.064-0.087 0.064c-0.023 0-0.041 0.014-0.041 0.032s-0.022 0.032-0.048 0.032c-0.026 0-0.048 0.014-0.048 0.032s-0.014 0.032-0.032 0.032c-0.034 0-0.121 0.066-0.243 0.184-0.041 0.040-0.082 0.072-0.092 0.072-0.021 0-0.155 0.112-0.287 0.241-0.055 0.053-0.15 0.132-0.211 0.175-0.134 0.094-0.744 0.704-0.88 0.879-0.053 0.068-0.154 0.182-0.224 0.254s-0.164 0.181-0.208 0.243c-0.044 0.062-0.119 0.154-0.168 0.205s-0.088 0.109-0.088 0.129-0.029 0.057-0.064 0.082c-0.035 0.025-0.064 0.069-0.064 0.096s-0.029 0.071-0.064 0.096c-0.035 0.025-0.064 0.069-0.064 0.096s-0.029 0.071-0.064 0.096c-0.035 0.025-0.064 0.066-0.064 0.091s-0.026 0.068-0.058 0.097c-0.032 0.028-0.068 0.073-0.080 0.1s-0.058 0.106-0.102 0.176-0.090 0.15-0.101 0.176-0.029 0.055-0.039 0.064c-0.059 0.051-0.29 0.513-0.29 0.579 0 0.033-0.014 0.061-0.032 0.061s-0.032 0.029-0.032 0.064c0 0.035-0.014 0.064-0.032 0.064s-0.032 0.019-0.032 0.042c0 0.059-0.075 0.214-0.104 0.214-0.013 0-0.024 0.036-0.024 0.080s-0.014 0.080-0.032 0.080c-0.018 0-0.032 0.029-0.032 0.064s-0.014 0.064-0.032 0.064c-0.018 0-0.032 0.028-0.032 0.062s-0.014 0.071-0.032 0.082c-0.018 0.011-0.032 0.055-0.032 0.098s-0.014 0.078-0.032 0.078c-0.018 0-0.032 0.043-0.032 0.096s-0.014 0.096-0.032 0.096c-0.018 0-0.032 0.029-0.032 0.064s-0.014 0.064-0.032 0.064c-0.018 0-0.032 0.043-0.032 0.096s-0.014 0.096-0.032 0.096c-0.018 0-0.032 0.029-0.032 0.064s-0.013 0.089-0.029 0.12c-0.016 0.031-0.044 0.113-0.062 0.184s-0.055 0.205-0.083 0.3c-0.028 0.094-0.050 0.22-0.050 0.28s-0.014 0.108-0.032 0.108c-0.018 0-0.032 0.057-0.032 0.126s-0.014 0.135-0.032 0.146c-0.018 0.011-0.032 0.098-0.032 0.194s-0.014 0.174-0.032 0.174c-0.018 0-0.032 0.085-0.032 0.19s-0.014 0.199-0.032 0.21c-0.044 0.027-0.044 3.045 0 3.072 0.018 0.011 0.032 0.104 0.032 0.208s0.014 0.197 0.032 0.208c0.018 0.011 0.032 0.091 0.032 0.178s0.014 0.158 0.032 0.158c0.018 0 0.032 0.065 0.032 0.144s0.014 0.144 0.032 0.144c0.018 0 0.032 0.049 0.032 0.108s0.023 0.186 0.050 0.28c0.028 0.094 0.065 0.229 0.083 0.3s0.046 0.153 0.062 0.184c0.016 0.031 0.029 0.084 0.029 0.118s0.014 0.071 0.032 0.082c0.018 0.011 0.032 0.048 0.032 0.082s0.013 0.088 0.028 0.118c0.016 0.031 0.042 0.092 0.060 0.136s0.062 0.143 0.1 0.219 0.069 0.166 0.069 0.2c0 0.034 0.014 0.061 0.032 0.061s0.032 0.029 0.032 0.064c0 0.035 0.014 0.064 0.032 0.064s0.032 0.029 0.032 0.064c0 0.035 0.014 0.064 0.032 0.064s0.032 0.035 0.032 0.078c0 0.043 0.014 0.087 0.032 0.098s0.032 0.048 0.032 0.082c0 0.034 0.014 0.062 0.032 0.062s0.032 0.029 0.032 0.064c0 0.035 0.014 0.064 0.032 0.064s0.032 0.022 0.032 0.048c0 0.047 0.061 0.175 0.099 0.208 0.010 0.009 0.039 0.063 0.064 0.12s0.056 0.104 0.069 0.104c0.013 0 0.024 0.026 0.024 0.057s0.029 0.078 0.064 0.103 0.065 0.068 0.066 0.095c0.001 0.027 0.030 0.092 0.063 0.145s0.084 0.138 0.113 0.189c0.029 0.051 0.080 0.122 0.113 0.158s0.061 0.081 0.061 0.1 0.029 0.056 0.064 0.081c0.035 0.025 0.064 0.062 0.064 0.082s0.043 0.081 0.096 0.137c0.053 0.055 0.096 0.112 0.096 0.126s0.029 0.046 0.064 0.071c0.035 0.025 0.064 0.066 0.064 0.090s0.043 0.084 0.096 0.134c0.053 0.049 0.096 0.107 0.096 0.127s0.058 0.093 0.128 0.161c0.070 0.068 0.128 0.138 0.128 0.158s0.014 0.034 0.032 0.034 0.032 0.020 0.032 0.045c0 0.025 0.012 0.050 0.026 0.056s0.084 0.090 0.155 0.187c0.071 0.097 0.153 0.196 0.182 0.22s0.053 0.057 0.053 0.072 0.043 0.074 0.096 0.129c0.053 0.055 0.096 0.114 0.096 0.131s0.043 0.071 0.096 0.12c0.053 0.049 0.096 0.107 0.096 0.127s0.058 0.093 0.128 0.161c0.070 0.068 0.128 0.14 0.128 0.161s0.043 0.078 0.096 0.127c0.053 0.049 0.096 0.106 0.096 0.125s0.014 0.035 0.032 0.035 0.032 0.020 0.032 0.045c0 0.025 0.011 0.050 0.025 0.056s0.082 0.082 0.152 0.17c0.070 0.087 0.167 0.201 0.215 0.253s0.088 0.11 0.088 0.13c0 0.020 0.029 0.057 0.064 0.082s0.064 0.062 0.064 0.082c0 0.020 0.043 0.081 0.096 0.137s0.096 0.112 0.096 0.125c0 0.031 0.19 0.252 0.408 0.475 0.092 0.094 0.168 0.19 0.168 0.212s0.044 0.089 0.096 0.149c0.053 0.060 0.096 0.12 0.096 0.135s0.036 0.062 0.080 0.106c0.044 0.044 0.080 0.091 0.080 0.105s0.032 0.063 0.072 0.109c0.040 0.046 0.108 0.131 0.152 0.19s0.127 0.153 0.184 0.211c0.057 0.058 0.104 0.114 0.104 0.125s0.043 0.061 0.096 0.11c0.053 0.049 0.096 0.104 0.096 0.121s0.058 0.091 0.128 0.163c0.070 0.073 0.128 0.152 0.128 0.177s0.011 0.050 0.024 0.056c0.013 0.006 0.077 0.085 0.142 0.176 0.133 0.186 0.189 0.257 0.338 0.428 0.057 0.065 0.104 0.128 0.104 0.139s0.058 0.079 0.128 0.152c0.070 0.073 0.128 0.146 0.128 0.163s0.043 0.072 0.096 0.121c0.053 0.049 0.096 0.103 0.096 0.12s0.040 0.072 0.088 0.123c0.048 0.051 0.159 0.194 0.246 0.317s0.184 0.247 0.216 0.276c0.032 0.028 0.058 0.065 0.058 0.082 0 0.028 0.111 0.162 0.304 0.368 0.044 0.047 0.080 0.096 0.080 0.107s0.043 0.062 0.096 0.111c0.053 0.049 0.096 0.103 0.096 0.12s0.043 0.076 0.096 0.131c0.053 0.055 0.096 0.115 0.096 0.133s0.014 0.032 0.032 0.032c0.018 0 0.032 0.018 0.032 0.041s0.029 0.062 0.064 0.087 0.064 0.065 0.064 0.087 0.011 0.041 0.025 0.041c0.014 0 0.049 0.040 0.078 0.088 0.072 0.119 0.149 0.218 0.273 0.346 0.057 0.059 0.104 0.12 0.104 0.134s0.058 0.090 0.128 0.168c0.070 0.078 0.128 0.154 0.128 0.17s0.043 0.069 0.096 0.118 0.096 0.099 0.096 0.111c0 0.033 0.196 0.276 0.328 0.406 0.066 0.065 0.12 0.134 0.12 0.154s0.015 0.053 0.033 0.074c0.12 0.142 0.159 0.195 0.159 0.213 0 0.011 0.050 0.074 0.112 0.139s0.112 0.129 0.113 0.143c0.002 0.064 0.224 0.264 0.292 0.264 0.077 0 0.204-0.118 0.347-0.322 0.042-0.060 0.085-0.117 0.095-0.126 0.063-0.054 0.157-0.204 0.142-0.228-0.010-0.016 0.005-0.028 0.032-0.028s0.050-0.014 0.050-0.031c0-0.017 0.036-0.067 0.080-0.111s0.080-0.095 0.080-0.114c0-0.019 0.043-0.081 0.096-0.137 0.178-0.191 0.288-0.325 0.288-0.353 0-0.015 0.043-0.068 0.096-0.118s0.096-0.104 0.096-0.121c0-0.017 0.058-0.091 0.128-0.163s0.128-0.148 0.128-0.167c0-0.019 0.047-0.083 0.104-0.142 0.126-0.13 0.203-0.226 0.273-0.343 0.029-0.048 0.064-0.088 0.078-0.088s0.025-0.018 0.025-0.041c0-0.022 0.029-0.062 0.064-0.087s0.064-0.063 0.064-0.083c0-0.020 0.058-0.098 0.128-0.173s0.128-0.148 0.128-0.163c0-0.015 0.079-0.109 0.176-0.209s0.176-0.193 0.176-0.207c0-0.014 0.034-0.060 0.076-0.102s0.112-0.133 0.156-0.201 0.11-0.152 0.148-0.186c0.038-0.034 0.068-0.080 0.068-0.104s0.014-0.043 0.032-0.043c0.018 0 0.032-0.022 0.032-0.048s0.014-0.048 0.032-0.048c0.018 0 0.032-0.016 0.032-0.034s0.058-0.090 0.128-0.158 0.128-0.138 0.128-0.157 0.058-0.096 0.128-0.17 0.128-0.148 0.128-0.163c0-0.015 0.043-0.068 0.096-0.117s0.096-0.102 0.096-0.118c0-0.015 0.057-0.085 0.127-0.155s0.127-0.145 0.128-0.167c0.001-0.022 0.012-0.040 0.025-0.040s0.060-0.054 0.104-0.12c0.077-0.115 0.093-0.137 0.184-0.245 0.022-0.026 0.040-0.064 0.040-0.084s0.058-0.091 0.128-0.159 0.128-0.142 0.128-0.166c0-0.023 0.043-0.076 0.096-0.118s0.096-0.090 0.096-0.107c0-0.017 0.043-0.072 0.096-0.121s0.096-0.106 0.096-0.127c0-0.020 0.014-0.028 0.032-0.017s0.032 0.001 0.032-0.022c0-0.023 0.043-0.088 0.096-0.144s0.096-0.115 0.096-0.131c0-0.016 0.040-0.072 0.088-0.124s0.092-0.112 0.096-0.132c0.007-0.034 0.094-0.146 0.192-0.248 0.022-0.023 0.040-0.059 0.040-0.080 0-0.042 0.121-0.158 0.165-0.158 0.015 0 0.027-0.014 0.027-0.032s0.043-0.073 0.096-0.123 0.096-0.101 0.096-0.113c0-0.011 0.043-0.066 0.096-0.121s0.096-0.113 0.096-0.129c0-0.016 0.036-0.065 0.080-0.109s0.080-0.093 0.080-0.109c0-0.016 0.036-0.065 0.080-0.109s0.080-0.095 0.080-0.113c0-0.018 0.072-0.108 0.16-0.2s0.16-0.177 0.16-0.189c0-0.012 0.050-0.076 0.112-0.143s0.112-0.135 0.112-0.151c0-0.016 0.058-0.087 0.128-0.159s0.128-0.143 0.128-0.159c0-0.015 0.050-0.078 0.112-0.14s0.112-0.125 0.112-0.141c0-0.016 0.036-0.066 0.080-0.11s0.080-0.099 0.080-0.121c0-0.023 0.043-0.075 0.096-0.117s0.096-0.089 0.096-0.105c0-0.016 0.036-0.066 0.081-0.11s0.105-0.119 0.136-0.167c0.070-0.109 0.102-0.15 0.192-0.246 0.040-0.042 0.072-0.088 0.073-0.102s0.058-0.090 0.128-0.168c0.070-0.079 0.127-0.158 0.127-0.177s0.029-0.055 0.064-0.080 0.064-0.068 0.064-0.095c0-0.027 0.043-0.083 0.096-0.125s0.096-0.092 0.096-0.113c0-0.020 0.029-0.058 0.064-0.083s0.064-0.062 0.064-0.081c0-0.019 0.030-0.067 0.067-0.107 0.097-0.104 0.331-0.46 0.38-0.576 0.023-0.055 0.054-0.1 0.070-0.1s0.028-0.029 0.028-0.064 0.014-0.064 0.032-0.064c0.018 0 0.032-0.029 0.032-0.064s0.014-0.064 0.032-0.064c0.018 0 0.032-0.022 0.032-0.048s0.014-0.048 0.032-0.048c0.018 0 0.032-0.022 0.032-0.048s0.014-0.048 0.032-0.048c0.018 0 0.032-0.029 0.032-0.064s0.014-0.064 0.032-0.064c0.018 0 0.032-0.028 0.032-0.062s0.014-0.071 0.032-0.082c0.018-0.011 0.032-0.048 0.032-0.082s0.014-0.062 0.032-0.062c0.018 0 0.032-0.029 0.032-0.064s0.014-0.064 0.032-0.064c0.018 0 0.032-0.043 0.032-0.096s0.014-0.096 0.032-0.096c0.018 0 0.032-0.029 0.032-0.064s0.014-0.064 0.032-0.064c0.018 0 0.032-0.029 0.032-0.064s0.014-0.064 0.032-0.064c0.018 0 0.032-0.036 0.032-0.080s0.014-0.080 0.032-0.080c0.018 0 0.032-0.021 0.032-0.047s0.029-0.098 0.064-0.161c0.035-0.063 0.064-0.141 0.064-0.175s0.014-0.070 0.032-0.081 0.032-0.055 0.032-0.098c0-0.043 0.014-0.078 0.032-0.078s0.032-0.043 0.032-0.096c0-0.053 0.014-0.096 0.032-0.096s0.032-0.042 0.032-0.094c0-0.052 0.014-0.103 0.032-0.114s0.032-0.061 0.032-0.112c0-0.051 0.014-0.101 0.030-0.111s0.030-0.043 0.030-0.074c0.001-0.125 0.046-0.362 0.072-0.378 0.015-0.009 0.028-0.073 0.028-0.141s0.014-0.133 0.032-0.144c0.018-0.011 0.032-0.091 0.032-0.178s0.014-0.158 0.032-0.158c0.018 0 0.032-0.085 0.032-0.192s0.014-0.192 0.032-0.192c0.021 0 0.032-0.554 0.032-1.598 0-1.031-0.011-1.605-0.032-1.618-0.018-0.011-0.032-0.104-0.032-0.208s-0.014-0.197-0.032-0.208c-0.018-0.011-0.032-0.083-0.032-0.16s-0.014-0.149-0.032-0.16c-0.018-0.011-0.032-0.077-0.032-0.146s-0.012-0.126-0.028-0.126c-0.015 0-0.037-0.096-0.049-0.213s-0.034-0.236-0.049-0.264c-0.015-0.028-0.037-0.102-0.049-0.163s-0.029-0.152-0.039-0.2c-0.009-0.048-0.030-0.088-0.045-0.088s-0.028-0.043-0.028-0.096c0-0.053-0.014-0.096-0.032-0.096s-0.032-0.043-0.032-0.096c0-0.053-0.014-0.096-0.032-0.096s-0.032-0.043-0.032-0.096c0-0.053-0.014-0.096-0.032-0.096s-0.032-0.029-0.032-0.064c0-0.035-0.014-0.064-0.032-0.064s-0.032-0.043-0.032-0.096c0-0.053-0.014-0.096-0.032-0.096s-0.032-0.036-0.032-0.080c0-0.044-0.014-0.080-0.032-0.080s-0.032-0.020-0.032-0.045c0-0.053-0.133-0.318-0.168-0.334-0.013-0.006-0.024-0.038-0.024-0.072s-0.014-0.061-0.032-0.061-0.032-0.029-0.032-0.064c0-0.035-0.014-0.064-0.031-0.064s-0.023-0.020-0.014-0.045c0.009-0.025 0.002-0.054-0.018-0.066s-0.026-0.035-0.016-0.051c0.010-0.017-0.011-0.072-0.048-0.123s-0.066-0.109-0.066-0.128-0.012-0.035-0.026-0.035c-0.014 0-0.046-0.050-0.070-0.112s-0.056-0.112-0.070-0.112c-0.014 0-0.026-0.020-0.026-0.045s-0.011-0.050-0.024-0.056c-0.013-0.006-0.051-0.064-0.084-0.129s-0.087-0.147-0.12-0.183-0.060-0.083-0.060-0.106c0-0.023-0.029-0.063-0.064-0.088s-0.064-0.069-0.064-0.096c0-0.027-0.029-0.071-0.064-0.096s-0.064-0.062-0.064-0.082c0-0.020-0.043-0.081-0.096-0.137s-0.096-0.111-0.096-0.125c-0-0.013-0.032-0.063-0.072-0.109s-0.122-0.147-0.184-0.222-0.144-0.17-0.184-0.209c-0.040-0.040-0.072-0.082-0.072-0.094s-0.1-0.121-0.222-0.241c-0.122-0.121-0.215-0.219-0.207-0.219 0.025 0-0.247-0.262-0.466-0.448-0.114-0.097-0.254-0.219-0.311-0.272-0.231-0.212-0.264-0.24-0.28-0.24s-0.041-0.020-0.233-0.181c-0.045-0.038-0.12-0.088-0.165-0.112s-0.106-0.068-0.135-0.099c-0.028-0.031-0.068-0.056-0.088-0.056s-0.082-0.043-0.137-0.096-0.12-0.096-0.144-0.096c-0.024 0-0.043-0.014-0.043-0.032s-0.019-0.032-0.042-0.032c-0.023 0-0.073-0.029-0.111-0.064s-0.086-0.064-0.106-0.064c-0.021 0-0.061-0.025-0.089-0.056s-0.095-0.078-0.148-0.104c-0.053-0.026-0.145-0.080-0.204-0.12s-0.135-0.072-0.168-0.072c-0.033 0-0.060-0.014-0.060-0.032s-0.029-0.032-0.064-0.032c-0.035 0-0.064-0.014-0.064-0.032s-0.028-0.032-0.062-0.032c-0.034 0-0.071-0.014-0.082-0.032s-0.055-0.032-0.098-0.032c-0.043 0-0.078-0.014-0.078-0.032s-0.029-0.032-0.064-0.032c-0.035 0-0.064-0.014-0.064-0.032s-0.043-0.032-0.096-0.032c-0.053 0-0.096-0.011-0.096-0.024-0-0.032-0.159-0.104-0.23-0.104-0.032 0-0.058-0.014-0.058-0.032s-0.029-0.032-0.064-0.032c-0.035 0-0.064-0.014-0.064-0.032s-0.043-0.032-0.096-0.032c-0.053 0-0.096-0.014-0.096-0.032s-0.029-0.032-0.064-0.032c-0.035 0-0.064-0.014-0.064-0.032s-0.043-0.032-0.096-0.032c-0.053 0-0.096-0.014-0.096-0.032s-0.058-0.032-0.128-0.032c-0.070 0-0.128-0.014-0.128-0.032s-0.043-0.032-0.096-0.032c-0.053 0-0.096-0.014-0.096-0.032s-0.043-0.032-0.096-0.032c-0.053 0-0.096-0.014-0.096-0.032s-0.050-0.032-0.11-0.032c-0.061 0-0.119-0.014-0.13-0.032s-0.068-0.032-0.128-0.032c-0.060 0-0.116-0.013-0.126-0.028s-0.076-0.029-0.148-0.030c-0.072-0.001-0.149-0.017-0.171-0.035s-0.090-0.031-0.151-0.029-0.142-0.013-0.181-0.034c-0.039-0.021-0.118-0.036-0.175-0.033s-0.198-0.011-0.312-0.031c-0.3-0.052-2.637-0.040-3.072 0.015zM16.654 4.097c0.384 0.043 0.709 0.091 0.866 0.127 0.632 0.145 0.955 0.244 1.414 0.433 0.452 0.187 1.117 0.547 1.37 0.743 0.018 0.014 0.111 0.081 0.208 0.15 0.758 0.539 1.601 1.461 2.052 2.246 0.311 0.542 0.653 1.299 0.622 1.379-0.019 0.050-14.337 0.062-14.368 0.011-0.044-0.070 0.31-0.85 0.633-1.394 0.976-1.648 2.655-2.933 4.486-3.434 0.448-0.123 0.762-0.18 1.408-0.259 0.324-0.039 0.974-0.041 1.31-0.003zM16.672 9.793c1.046 0.352 1.673 1.441 1.426 2.479-0.143 0.602-0.699 1.256-1.234 1.453-0.062 0.023-0.141 0.053-0.176 0.068-0.765 0.315-1.874-0.068-2.372-0.82-0.139-0.209-0.19-0.312-0.285-0.573-0.1-0.275-0.107-1.045-0.010-1.15 0.015-0.017 0.028-0.056 0.028-0.088s0.013-0.083 0.028-0.114c0.016-0.031 0.048-0.099 0.071-0.152 0.405-0.908 1.579-1.422 2.525-1.103zM15.885 10.071c-0.030 0.047-0.048 0.050-0.12 0.017-0.104-0.047-0.276-0.017-0.302 0.052-0.027 0.072-0.078 0.101-0.144 0.080-0.078-0.024-0.247 0.056-0.247 0.117 0 0.070-0.065 0.127-0.145 0.127-0.085 0-0.198 0.119-0.212 0.224-0.007 0.049-0.045 0.096-0.099 0.122-0.107 0.051-0.164 0.149-0.14 0.242 0.020 0.079-0.005 0.129-0.079 0.156-0.068 0.025-0.1 0.197-0.055 0.296 0.030 0.065 0.026 0.091-0.017 0.138-0.067 0.074-0.069 0.25-0.003 0.316 0.030 0.030 0.041 0.070 0.026 0.102-0.050 0.108-0.018 0.261 0.068 0.329 0.067 0.053 0.080 0.084 0.064 0.156-0.024 0.111 0.056 0.246 0.155 0.26 0.044 0.006 0.075 0.039 0.086 0.090 0.027 0.134 0.105 0.224 0.194 0.224 0.094 0 0.159 0.053 0.159 0.13 0 0.064 0.163 0.139 0.246 0.113 0.068-0.021 0.119 0.007 0.146 0.081 0.025 0.068 0.193 0.105 0.276 0.061 0.066-0.036 0.164-0.016 0.164 0.033 0 0.048 0.221 0.032 0.303-0.022 0.061-0.040 0.091-0.043 0.145-0.014 0.071 0.038 0.256 0.015 0.256-0.032 0-0.068 0.101-0.123 0.2-0.109 0.117 0.017 0.182-0.026 0.239-0.155 0.027-0.060 0.063-0.088 0.114-0.088 0.092 0 0.205-0.115 0.219-0.224 0.007-0.052 0.034-0.083 0.077-0.089 0.089-0.013 0.181-0.174 0.156-0.273-0.014-0.058 0.001-0.097 0.061-0.153 0.091-0.086 0.14-0.234 0.087-0.266-0.050-0.031-0.042-0.131 0.013-0.178 0.026-0.022 0.048-0.087 0.048-0.144s-0.022-0.122-0.048-0.144c-0.056-0.046-0.063-0.133-0.014-0.181 0.051-0.051 0-0.2-0.088-0.258-0.065-0.042-0.075-0.069-0.060-0.152 0.021-0.114-0.023-0.192-0.142-0.251-0.046-0.023-0.084-0.073-0.090-0.119-0.015-0.108-0.128-0.223-0.22-0.223-0.049 0-0.085-0.026-0.103-0.074-0.039-0.104-0.177-0.187-0.269-0.164-0.072 0.018-0.181-0.049-0.181-0.112 0-0.044-0.194-0.067-0.261-0.031-0.048 0.026-0.082 0.022-0.14-0.016-0.104-0.068-0.278-0.065-0.322 0.005zM15.754 10.464c0.044 0.132 0.098 0.307 0.121 0.39 0.055 0.198 0.093 0.165 0.093-0.080 0.001-0.771 0.117-0.848 0.156-0.104l0.020 0.386 0.122-0.384c0.121-0.38 0.192-0.527 0.233-0.485 0.022 0.022-0.011 0.196-0.12 0.639-0.034 0.137-0.061 0.259-0.061 0.272s0.115-0.15 0.256-0.361c0.216-0.324 0.436-0.558 0.327-0.347-0.017 0.032-0.057 0.116-0.090 0.187s-0.114 0.227-0.18 0.348c-0.179 0.327-0.169 0.326 0.216-0.028 0.532-0.489 0.552-0.396 0.035 0.16-0.241 0.26-0.217 0.291 0.094 0.121 0.306-0.167 0.491-0.247 0.516-0.222 0.026 0.026-0.138 0.17-0.254 0.221-0.048 0.022-0.088 0.050-0.088 0.064s-0.015 0.024-0.033 0.024c-0.018 0-0.108 0.050-0.2 0.112-0.176 0.118-0.138 0.153 0.092 0.084 0.341-0.103 0.71-0.153 0.657-0.089-0.041 0.050-0.686 0.277-0.786 0.277-0.028 0-0.050 0.012-0.050 0.027s0.181 0.037 0.402 0.050c0.661 0.037 0.656 0.115-0.008 0.14-0.43 0.017-0.472 0.034-0.242 0.101 0.499 0.145 0.68 0.215 0.68 0.263 0 0.036-0.098 0.033-0.264-0.006-0.758-0.183-0.75-0.187-0.264 0.124 0.576 0.368 0.508 0.416-0.126 0.089-0.386-0.199-0.406-0.204-0.281-0.066 0.048 0.052 0.184 0.201 0.302 0.331 0.209 0.228 0.25 0.292 0.186 0.292-0.035 0-0.259-0.188-0.522-0.439-0.21-0.2-0.225-0.187-0.083 0.075 0.223 0.413 0.308 0.604 0.275 0.616-0.019 0.007-0.054-0.015-0.078-0.048s-0.065-0.086-0.091-0.117c-0.026-0.031-0.047-0.064-0.047-0.073s-0.081-0.135-0.179-0.28c-0.099-0.145-0.17-0.227-0.159-0.183 0.033 0.129 0.147 0.647 0.168 0.76 0.053 0.292-0.106 0.035-0.228-0.369-0.133-0.439-0.134-0.439-0.153-0.005-0.030 0.669-0.111 0.728-0.14 0.104-0.021-0.457-0.036-0.515-0.090-0.345-0.177 0.56-0.226 0.693-0.266 0.726-0.062 0.052-0.007-0.363 0.092-0.691 0.085-0.283-0.101-0.11-0.281 0.261-0.028 0.057-0.063 0.104-0.079 0.104s-0.028 0.015-0.028 0.033c0 0.018-0.029 0.064-0.064 0.102-0.059 0.064-0.064 0.064-0.064 0.009 0-0.066 0.224-0.538 0.263-0.555 0.014-0.006 0.025-0.037 0.025-0.069s0.016-0.064 0.036-0.071c0.020-0.007 0.030-0.038 0.024-0.069-0.010-0.047-0.038-0.033-0.158 0.081-0.375 0.355-0.479 0.442-0.526 0.442-0.068 0-0.039-0.040 0.288-0.397 0.141-0.154 0.261-0.294 0.267-0.311s-0.173 0.063-0.398 0.178c-0.436 0.223-0.469 0.236-0.441 0.163 0.020-0.051 0.688-0.498 0.745-0.498 0.019 0 0.035-0.016 0.035-0.035 0-0.021-0.023-0.026-0.056-0.014-0.135 0.052-0.819 0.18-0.866 0.162-0.079-0.030 0.625-0.304 0.783-0.304 0.024 0 0.044-0.012 0.044-0.028s-0.176-0.035-0.392-0.044c-0.654-0.028-0.684-0.103-0.055-0.137 0.229-0.013 0.424-0.036 0.434-0.051s-0.006-0.028-0.034-0.028c-0.053 0-0.378-0.097-0.616-0.183-0.211-0.076-0.254-0.151-0.072-0.123 0.207 0.031 0.452 0.085 0.537 0.118 0.040 0.016 0.119 0.028 0.175 0.028h0.102l-0.118-0.080c-0.065-0.044-0.133-0.080-0.151-0.080s-0.034-0.011-0.034-0.024c0-0.013-0.040-0.042-0.088-0.064s-0.16-0.094-0.248-0.159c-0.261-0.193-0.098-0.164 0.342 0.061 0.217 0.111 0.407 0.207 0.423 0.214s-0.065-0.087-0.18-0.208c-0.333-0.35-0.484-0.537-0.446-0.549 0.046-0.015 0.114 0.034 0.348 0.249 0.343 0.316 0.425 0.386 0.425 0.359 0-0.015-0.014-0.041-0.032-0.058-0.054-0.054-0.417-0.791-0.398-0.809s0.206 0.169 0.206 0.204c0 0.010 0.079 0.137 0.176 0.281 0.171 0.256 0.218 0.267 0.148 0.036-0.177-0.585-0.142-0.942 0.038-0.397zM23.2 14.396c0 0.049-0.144 0.386-0.326 0.764-0.13 0.269-0.518 0.934-0.563 0.966-0.014 0.010-0.060 0.068-0.102 0.13s-0.086 0.119-0.096 0.128c-0.010 0.009-0.054 0.065-0.096 0.126-0.245 0.35-0.909 1.004-1.36 1.339-0.123 0.091-0.238 0.178-0.256 0.192-0.304 0.245-1.212 0.727-1.678 0.889-0.133 0.046-0.271 0.096-0.306 0.11s-0.1 0.035-0.144 0.047c-0.044 0.011-0.13 0.035-0.192 0.053-1.309 0.374-2.782 0.374-4.16 0.002-0.602-0.163-1.491-0.56-1.958-0.875-0.1-0.068-0.19-0.123-0.2-0.123s-0.086-0.052-0.17-0.115c-0.084-0.063-0.194-0.146-0.246-0.184-0.989-0.73-2.029-2.091-2.45-3.205-0.013-0.035-0.039-0.102-0.058-0.149s-0.025-0.093-0.015-0.104c0.031-0.031 14.377-0.022 14.377 0.009z"></path>
<path fill="#0e0e84" d="M15.776 9.761c-1.289 0.14-2.152 1.603-1.642 2.783 0.842 1.95 3.538 1.648 3.945-0.442 0.16-0.822-0.336-1.765-1.13-2.15-0.146-0.071-0.291-0.129-0.322-0.129s-0.080-0.012-0.11-0.028c-0.080-0.041-0.504-0.061-0.742-0.036zM16.195 10.003c0.025 0.016 0.122 0.029 0.215 0.029 0.139 0 0.182 0.014 0.229 0.072 0.040 0.049 0.093 0.072 0.169 0.072 0.119 0 0.28 0.118 0.28 0.206 0 0.033 0.030 0.050 0.090 0.050 0.104 0 0.243 0.129 0.245 0.226 0.001 0.035 0.036 0.081 0.079 0.102 0.109 0.055 0.212 0.235 0.165 0.291-0.027 0.033-0.013 0.066 0.061 0.143 0.101 0.106 0.122 0.22 0.059 0.321-0.030 0.048-0.024 0.072 0.032 0.128 0.088 0.088 0.088 0.22-0.001 0.315-0.054 0.057-0.061 0.083-0.032 0.112 0.069 0.069 0.045 0.24-0.046 0.325-0.057 0.052-0.079 0.1-0.068 0.143 0.023 0.087-0.084 0.256-0.187 0.295-0.060 0.023-0.079 0.049-0.068 0.092 0.021 0.082-0.169 0.268-0.244 0.24-0.040-0.015-0.062 0.004-0.086 0.072-0.038 0.108-0.214 0.216-0.299 0.183-0.040-0.015-0.082 0.004-0.136 0.062-0.083 0.089-0.285 0.119-0.352 0.052-0.022-0.022-0.051-0.012-0.091 0.032-0.075 0.083-0.24 0.084-0.335 0.002-0.063-0.054-0.081-0.057-0.141-0.020-0.093 0.057-0.254 0.011-0.322-0.093-0.043-0.066-0.063-0.074-0.109-0.044-0.074 0.046-0.27-0.067-0.296-0.171-0.012-0.048-0.040-0.070-0.082-0.066-0.095 0.010-0.249-0.137-0.251-0.24-0.001-0.064-0.020-0.089-0.071-0.097-0.093-0.013-0.181-0.155-0.176-0.284 0.003-0.070-0.015-0.115-0.052-0.135-0.077-0.041-0.152-0.255-0.106-0.301 0.050-0.050 0.044-0.136-0.013-0.182-0.026-0.022-0.048-0.087-0.048-0.144s0.022-0.122 0.048-0.144c0.057-0.047 0.061-0.108 0.014-0.184-0.045-0.073 0.045-0.296 0.118-0.296 0.038 0 0.047-0.022 0.035-0.086-0.024-0.123 0.066-0.289 0.176-0.328 0.066-0.023 0.090-0.050 0.083-0.095-0.014-0.083 0.126-0.228 0.22-0.228 0.050 0 0.085-0.026 0.105-0.078 0.037-0.098 0.166-0.185 0.263-0.177 0.123 0.010 0.149 0.001 0.159-0.054 0.015-0.076 0.211-0.136 0.317-0.096 0.064 0.024 0.101 0.020 0.158-0.020 0.076-0.053 0.211-0.055 0.291-0.003zM16.024 10.539c-0.033 0.081-0.030 0.718 0.004 0.739 0.039 0.024 0.060-0.275 0.039-0.557-0.012-0.152-0.027-0.219-0.042-0.181zM15.716 10.586c-0.007 0.114 0.093 0.522 0.158 0.646 0.066 0.126 0.086 0.057 0.033-0.115-0.016-0.051-0.047-0.158-0.070-0.237s-0.052-0.158-0.065-0.176c-0.013-0.018-0.030-0.068-0.038-0.112-0.014-0.076-0.015-0.077-0.019-0.006zM16.32 10.648c-0 0.031-0.024 0.121-0.053 0.2-0.060 0.165-0.107 0.452-0.070 0.429 0.023-0.014 0.073-0.17 0.153-0.481 0.042-0.164 0.043-0.204 0.002-0.204-0.018 0-0.032 0.025-0.032 0.056zM15.395 10.661c-0.005 0.097 0.368 0.755 0.406 0.716 0.023-0.024-0.113-0.298-0.247-0.496-0.066-0.098-0.128-0.199-0.138-0.226-0.015-0.040-0.019-0.039-0.021 0.005zM16.528 10.888c-0.157 0.243-0.208 0.339-0.208 0.393 0 0.023-0.018 0.049-0.040 0.058-0.029 0.012-0.030 0.017-0.002 0.019 0.052 0.003 0.174-0.164 0.296-0.408 0.136-0.272 0.112-0.306-0.046-0.062zM16.928 10.883c-0.382 0.335-0.717 0.71-0.49 0.548 0.142-0.101 0.662-0.649 0.614-0.647-0.007 0-0.062 0.045-0.124 0.099zM15.136 10.901c0 0.040 0.472 0.523 0.51 0.523 0.066 0 0.031-0.057-0.135-0.217-0.22-0.212-0.376-0.34-0.376-0.306zM15.069 11.267c0.236 0.154 0.491 0.285 0.552 0.285 0.054 0-0.215-0.178-0.473-0.313-0.275-0.144-0.319-0.128-0.079 0.028zM16.878 11.274c-0.261 0.136-0.468 0.278-0.404 0.278 0.078 0 0.44-0.201 0.642-0.357 0.119-0.092 0.043-0.066-0.238 0.079zM15.864 11.474c-0.358 0.194-0.142 0.759 0.257 0.671 0.237-0.052 0.384-0.415 0.23-0.566-0.163-0.159-0.323-0.194-0.486-0.105zM14.816 11.479c0.044 0.008 0.094 0.028 0.11 0.044s0.061 0.029 0.099 0.029c0.038 0 0.079 0.010 0.091 0.023 0.032 0.032 0.308 0.102 0.404 0.103 0.067 0 0.058-0.010-0.054-0.063-0.144-0.068-0.546-0.162-0.66-0.154-0.061 0.004-0.060 0.006 0.010 0.019zM16.912 11.52c-0.275 0.072-0.463 0.16-0.336 0.158 0.097-0.002 0.372-0.072 0.404-0.104 0.013-0.013 0.056-0.023 0.098-0.023s0.075-0.014 0.075-0.030 0.047-0.036 0.104-0.043l0.104-0.013-0.112-0.002c-0.062-0.001-0.213 0.024-0.336 0.056zM14.832 11.773c-0.151 0.018-0.144 0.021 0.128 0.044 0.317 0.027 0.671-0.003 0.528-0.044-0.095-0.027-0.431-0.027-0.656 0zM16.608 11.773c-0.143 0.041 0.21 0.070 0.528 0.044l0.288-0.024-0.176-0.022c-0.229-0.028-0.539-0.028-0.64 0.001zM16.562 11.948c0.064 0.044 0.552 0.18 0.645 0.18 0.159 0-0.313-0.166-0.581-0.204-0.111-0.016-0.118-0.013-0.064 0.024zM15.042 12.026c-0.131 0.045-0.219 0.088-0.195 0.096 0.058 0.019 0.641-0.126 0.641-0.16 0-0.048-0.206-0.019-0.446 0.064zM16.448 12.021c0 0.072 0.71 0.476 0.783 0.446 0.018-0.008 0.009-0.015-0.020-0.016s-0.058-0.014-0.064-0.028c-0.028-0.067-0.699-0.452-0.699-0.401zM15.456 12.099c-0.178 0.080-0.511 0.293-0.512 0.326-0 0.039 0.554-0.251 0.621-0.325 0.074-0.082 0.071-0.082-0.109-0.001zM15.604 12.198c-0.050 0.038-0.158 0.14-0.24 0.228s-0.195 0.208-0.253 0.267c-0.225 0.228-0.026 0.092 0.25-0.171 0.333-0.318 0.458-0.483 0.244-0.324zM16.384 12.141c0 0.034 0.112 0.159 0.331 0.368 0.349 0.335 0.352 0.289 0.005-0.087-0.153-0.166-0.336-0.319-0.336-0.281zM15.689 12.346c-0.056 0.083-0.134 0.222-0.175 0.31s-0.085 0.165-0.098 0.171c-0.013 0.006-0.022 0.042-0.020 0.080 0.003 0.054 0.007 0.057 0.018 0.013 0.008-0.031 0.028-0.056 0.044-0.056s0.030-0.015 0.030-0.034c0-0.019 0.041-0.094 0.092-0.168 0.104-0.151 0.243-0.433 0.223-0.453-0.007-0.007-0.058 0.055-0.114 0.137zM16.285 12.248c0.016 0.031 0.052 0.106 0.079 0.168 0.067 0.15 0.308 0.507 0.308 0.455 0-0.089-0.34-0.678-0.392-0.678-0.013-0-0.011 0.025 0.005 0.056zM15.864 12.375c-0.074 0.184-0.16 0.571-0.142 0.64 0.009 0.036 0.016 0.026 0.018-0.030 0.002-0.047 0.016-0.094 0.032-0.104s0.036-0.050 0.045-0.090c0.009-0.040 0.040-0.158 0.069-0.263 0.065-0.237 0.051-0.336-0.022-0.155zM16 12.664c0.001 0.416 0.049 0.541 0.069 0.179 0.017-0.296-0.001-0.523-0.041-0.523-0.016 0-0.028 0.155-0.028 0.344zM16.196 12.472c0.036 0.224 0.064 0.327 0.096 0.346 0.015 0.010 0.028 0.053 0.028 0.096s0.014 0.078 0.032 0.078c0.040 0 0.041 0.012-0.018-0.246-0.090-0.396-0.189-0.592-0.139-0.274z"></path>
<path fill="#98a3c2" d="M15.696 9.717c-0.106 0.017-0.435 0.123-0.56 0.18-0.361 0.167-0.828 0.639-0.989 0.999-0.024 0.053-0.055 0.121-0.071 0.152s-0.028 0.082-0.028 0.114-0.013 0.072-0.028 0.088c-0.097 0.106-0.090 0.875 0.010 1.15 0.095 0.261 0.147 0.364 0.285 0.573 0.499 0.752 1.608 1.135 2.372 0.82 0.035-0.014 0.114-0.045 0.176-0.068 0.535-0.197 1.091-0.852 1.234-1.453 0.337-1.418-0.948-2.785-2.402-2.555zM16.518 9.796c0.030 0.015 0.079 0.028 0.11 0.028 0.131 0 0.594 0.263 0.796 0.452 0.884 0.827 0.914 2.119 0.069 2.958-1.073 1.064-2.749 0.72-3.358-0.69-0.392-0.907 0.037-2.080 0.933-2.554 0.432-0.228 1.187-0.329 1.451-0.194zM15.904 10.006c-0.057 0.040-0.094 0.044-0.158 0.020-0.105-0.040-0.302 0.020-0.317 0.096-0.011 0.056-0.037 0.064-0.159 0.054-0.097-0.008-0.226 0.078-0.263 0.177-0.020 0.052-0.055 0.078-0.105 0.078-0.094 0-0.234 0.144-0.22 0.228 0.007 0.044-0.016 0.072-0.083 0.095-0.111 0.039-0.2 0.205-0.176 0.328 0.012 0.064 0.004 0.086-0.035 0.086-0.074 0-0.163 0.223-0.118 0.296 0.047 0.077 0.043 0.137-0.014 0.184-0.026 0.022-0.048 0.087-0.048 0.144s0.022 0.122 0.048 0.144c0.056 0.047 0.062 0.133 0.013 0.182-0.046 0.046 0.028 0.26 0.106 0.301 0.037 0.020 0.054 0.065 0.052 0.135-0.005 0.129 0.083 0.271 0.176 0.284 0.051 0.007 0.070 0.033 0.071 0.097 0.002 0.102 0.156 0.25 0.251 0.24 0.042-0.004 0.069 0.018 0.082 0.066 0.026 0.104 0.222 0.218 0.296 0.171 0.046-0.029 0.066-0.021 0.109 0.044 0.068 0.104 0.229 0.151 0.322 0.093 0.060-0.037 0.078-0.034 0.141 0.020 0.095 0.082 0.26 0.081 0.335-0.002 0.040-0.044 0.069-0.054 0.091-0.032 0.067 0.067 0.269 0.037 0.352-0.052 0.054-0.058 0.096-0.078 0.136-0.062 0.085 0.033 0.262-0.076 0.299-0.183 0.024-0.068 0.046-0.087 0.086-0.072 0.075 0.029 0.265-0.158 0.244-0.24-0.011-0.044 0.007-0.070 0.068-0.092 0.103-0.039 0.21-0.208 0.187-0.295-0.011-0.043 0.011-0.090 0.068-0.143 0.091-0.085 0.116-0.256 0.046-0.325-0.029-0.029-0.022-0.055 0.032-0.112 0.089-0.095 0.090-0.227 0.001-0.315-0.056-0.056-0.062-0.080-0.032-0.128 0.063-0.101 0.042-0.215-0.059-0.321-0.073-0.077-0.088-0.11-0.061-0.143 0.046-0.056-0.056-0.236-0.165-0.291-0.043-0.022-0.079-0.068-0.079-0.102-0.001-0.098-0.141-0.226-0.245-0.226-0.060 0-0.090-0.016-0.090-0.050 0-0.088-0.16-0.206-0.28-0.206-0.076 0-0.128-0.023-0.169-0.072-0.047-0.058-0.091-0.072-0.229-0.072-0.094 0-0.191-0.013-0.215-0.029-0.080-0.051-0.215-0.050-0.291 0.003zM16.207 10.066c0.058 0.038 0.092 0.042 0.14 0.016 0.067-0.036 0.261-0.013 0.261 0.031 0 0.063 0.109 0.13 0.181 0.112 0.093-0.023 0.23 0.060 0.269 0.164 0.018 0.049 0.054 0.074 0.103 0.074 0.092 0 0.205 0.115 0.22 0.223 0.006 0.045 0.045 0.096 0.090 0.119 0.119 0.059 0.164 0.138 0.142 0.251-0.015 0.082-0.005 0.109 0.060 0.152 0.089 0.058 0.14 0.207 0.088 0.258-0.048 0.048-0.042 0.135 0.014 0.181 0.026 0.022 0.048 0.087 0.048 0.144s-0.022 0.122-0.048 0.144c-0.056 0.046-0.063 0.147-0.013 0.178 0.052 0.032 0.004 0.18-0.087 0.266-0.060 0.056-0.075 0.096-0.061 0.153 0.025 0.099-0.068 0.261-0.156 0.273-0.043 0.006-0.070 0.038-0.077 0.089-0.015 0.109-0.128 0.224-0.219 0.224-0.051 0-0.088 0.028-0.114 0.088-0.057 0.129-0.122 0.171-0.239 0.155-0.099-0.014-0.2 0.041-0.2 0.109 0 0.047-0.185 0.070-0.256 0.032-0.054-0.029-0.084-0.026-0.145 0.014-0.082 0.054-0.303 0.069-0.303 0.022 0-0.049-0.098-0.069-0.164-0.033-0.082 0.044-0.251 0.007-0.276-0.061-0.027-0.074-0.078-0.103-0.146-0.081-0.083 0.026-0.246-0.049-0.246-0.113 0-0.078-0.064-0.13-0.159-0.13-0.088 0-0.166-0.090-0.194-0.224-0.010-0.051-0.041-0.084-0.086-0.090-0.099-0.014-0.179-0.149-0.155-0.26 0.016-0.073 0.003-0.103-0.064-0.156-0.086-0.068-0.118-0.221-0.068-0.329 0.015-0.032 0.005-0.071-0.026-0.102-0.066-0.066-0.064-0.242 0.003-0.316 0.043-0.048 0.046-0.074 0.017-0.138-0.045-0.1-0.014-0.271 0.055-0.296 0.074-0.027 0.099-0.077 0.079-0.156-0.023-0.093 0.033-0.191 0.14-0.242 0.054-0.026 0.092-0.073 0.099-0.122 0.014-0.105 0.127-0.224 0.212-0.224 0.080 0 0.145-0.057 0.145-0.127 0-0.061 0.169-0.141 0.247-0.117 0.066 0.021 0.118-0.008 0.144-0.080 0.026-0.070 0.198-0.1 0.302-0.052 0.072 0.033 0.090 0.030 0.12-0.017 0.044-0.070 0.219-0.073 0.322-0.005zM15.6 10.288c0.023 0.181 0.075 0.435 0.116 0.573 0.070 0.231 0.023 0.22-0.148-0.036-0.097-0.145-0.176-0.271-0.176-0.281 0-0.035-0.189-0.221-0.206-0.203-0.010 0.010 0.076 0.201 0.19 0.425s0.194 0.403 0.177 0.397c-0.016-0.006-0.148-0.118-0.292-0.25-0.311-0.284-0.37-0.329-0.417-0.313-0.038 0.013 0.113 0.199 0.446 0.549 0.115 0.121 0.196 0.215 0.18 0.208s-0.206-0.103-0.423-0.214c-0.439-0.225-0.602-0.255-0.342-0.061 0.088 0.065 0.2 0.137 0.248 0.159s0.088 0.051 0.088 0.064c0 0.013 0.015 0.024 0.034 0.024s0.087 0.036 0.151 0.080l0.118 0.080h-0.102c-0.056 0-0.135-0.013-0.175-0.028-0.085-0.033-0.33-0.087-0.537-0.118-0.182-0.028-0.139 0.047 0.072 0.123 0.238 0.086 0.563 0.183 0.616 0.183 0.028 0 0.043 0.013 0.034 0.028s-0.205 0.038-0.434 0.051c-0.629 0.035-0.599 0.11 0.055 0.137 0.216 0.009 0.392 0.029 0.392 0.044s-0.020 0.028-0.044 0.028c-0.157 0-0.862 0.274-0.783 0.304 0.048 0.018 0.731-0.109 0.866-0.162 0.033-0.013 0.056-0.007 0.056 0.014 0 0.020-0.016 0.035-0.035 0.035-0.057 0-0.726 0.447-0.745 0.498-0.028 0.072 0.005 0.060 0.441-0.163 0.225-0.115 0.404-0.195 0.398-0.178s-0.126 0.157-0.267 0.311c-0.327 0.357-0.356 0.397-0.288 0.397 0.048 0 0.151-0.087 0.526-0.442 0.12-0.114 0.148-0.128 0.158-0.081 0.006 0.031-0.004 0.062-0.024 0.069s-0.036 0.038-0.036 0.071c0 0.032-0.011 0.063-0.025 0.069-0.039 0.017-0.263 0.489-0.263 0.555 0 0.055 0.005 0.055 0.064-0.009 0.035-0.038 0.064-0.084 0.064-0.102s0.013-0.033 0.028-0.033c0.016 0 0.051-0.047 0.079-0.104 0.18-0.371 0.366-0.543 0.281-0.261-0.099 0.328-0.154 0.743-0.092 0.691 0.040-0.034 0.089-0.166 0.266-0.726 0.054-0.17 0.069-0.112 0.090 0.345 0.029 0.625 0.109 0.565 0.14-0.104 0.020-0.434 0.020-0.434 0.153 0.005 0.123 0.404 0.282 0.661 0.228 0.369-0.021-0.113-0.135-0.631-0.168-0.76-0.011-0.044 0.060 0.038 0.159 0.183s0.179 0.271 0.179 0.28 0.021 0.042 0.047 0.073c0.026 0.031 0.067 0.084 0.091 0.117s0.059 0.055 0.078 0.048c0.033-0.012-0.051-0.202-0.275-0.616-0.142-0.263-0.128-0.276 0.083-0.075 0.263 0.251 0.487 0.439 0.522 0.439 0.064 0 0.023-0.064-0.186-0.292-0.119-0.13-0.255-0.278-0.302-0.331-0.125-0.137-0.105-0.133 0.281 0.066 0.634 0.327 0.702 0.279 0.126-0.089-0.486-0.31-0.494-0.306 0.264-0.124 0.165 0.040 0.264 0.042 0.264 0.006 0-0.048-0.181-0.118-0.68-0.263-0.23-0.067-0.188-0.084 0.242-0.101 0.664-0.026 0.669-0.104 0.008-0.14-0.221-0.012-0.402-0.035-0.402-0.050s0.023-0.027 0.050-0.027c0.1 0 0.745-0.228 0.786-0.277 0.053-0.064-0.316-0.014-0.657 0.089-0.23 0.069-0.268 0.034-0.092-0.084 0.091-0.062 0.181-0.112 0.2-0.112s0.033-0.011 0.033-0.024c0-0.013 0.040-0.042 0.088-0.064 0.116-0.052 0.28-0.195 0.254-0.221-0.025-0.025-0.21 0.055-0.516 0.222-0.311 0.17-0.335 0.139-0.094-0.121 0.518-0.556 0.498-0.649-0.035-0.16-0.385 0.354-0.395 0.356-0.216 0.028 0.066-0.121 0.148-0.278 0.18-0.348s0.073-0.154 0.090-0.187c0.109-0.211-0.111 0.022-0.327 0.347-0.141 0.211-0.256 0.374-0.256 0.361s0.027-0.135 0.061-0.272c0.109-0.443 0.142-0.617 0.12-0.639-0.042-0.042-0.112 0.105-0.233 0.485l-0.122 0.384-0.020-0.386c-0.039-0.744-0.156-0.667-0.156 0.104-0 0.245-0.038 0.278-0.093 0.080-0.158-0.568-0.318-0.896-0.275-0.566zM16.070 11.127c-0.008 0.092-0.027 0.159-0.042 0.15-0.034-0.021-0.037-0.657-0.004-0.739 0.031-0.076 0.066 0.363 0.046 0.589zM15.773 10.704c0.013 0.018 0.042 0.097 0.065 0.176s0.054 0.186 0.070 0.237c0.052 0.169 0.033 0.242-0.031 0.122-0.031-0.058-0.067-0.094-0.080-0.081s-0.016 0.002-0.006-0.025-0.003-0.142-0.030-0.255c-0.027-0.113-0.047-0.242-0.045-0.286l0.004-0.080 0.015 0.080c0.008 0.044 0.025 0.094 0.038 0.112zM16.384 10.628c0 0.088-0.156 0.63-0.187 0.649-0.037 0.023 0.010-0.264 0.070-0.429 0.029-0.079 0.053-0.169 0.053-0.2s0.015-0.056 0.032-0.056c0.018 0 0.032 0.016 0.032 0.036zM15.554 10.882c0.139 0.206 0.27 0.473 0.245 0.498-0.010 0.010-0.034-0.013-0.054-0.050s-0.050-0.059-0.067-0.048c-0.017 0.011-0.029 0.007-0.027-0.007 0.015-0.086-0.004-0.122-0.038-0.074-0.029 0.040-0.032 0.039-0.016-0.009 0.011-0.033-0.029-0.145-0.093-0.267-0.061-0.115-0.11-0.234-0.109-0.263 0.002-0.044 0.006-0.045 0.021-0.005 0.010 0.026 0.072 0.128 0.138 0.226zM16.574 10.949c-0.122 0.244-0.244 0.412-0.296 0.408-0.028-0.002-0.028-0.007 0.002-0.019 0.022-0.009 0.040-0.035 0.040-0.058 0-0.081 0.328-0.614 0.346-0.563 0.005 0.016-0.036 0.12-0.092 0.231zM17.020 10.84c-0.067 0.085-0.093 0.113-0.309 0.337-0.158 0.163-0.19 0.212-0.149 0.228 0.072 0.028 0.128-0.012 0.073-0.051-0.033-0.024-0.030-0.027 0.013-0.013 0.032 0.010 0.156-0.030 0.285-0.093 0.292-0.142 0.303-0.128 0.036 0.048-0.302 0.198-0.713 0.381-0.462 0.205 0.104-0.073 0.020-0.126-0.088-0.055-0.189 0.124 0.136-0.235 0.508-0.561 0.127-0.111 0.156-0.125 0.092-0.043zM15.512 11.207c0.165 0.16 0.201 0.217 0.135 0.217-0.039 0-0.51-0.483-0.51-0.523-0-0.033 0.156 0.094 0.376 0.306zM15.148 11.239c0.258 0.135 0.527 0.313 0.473 0.313-0.061 0-0.315-0.132-0.552-0.285-0.24-0.156-0.196-0.172 0.079-0.028zM16.225 11.479c0.153 0.106 0.173 0.142 0.173 0.316 0 0.349-0.425 0.497-0.635 0.221-0.241-0.316 0.141-0.76 0.463-0.537zM15.104 11.504c0.265 0.056 0.548 0.174 0.416 0.173-0.096-0-0.372-0.070-0.404-0.103-0.013-0.013-0.054-0.023-0.091-0.023s-0.082-0.013-0.099-0.029c-0.017-0.016-0.066-0.036-0.11-0.044-0.070-0.013-0.072-0.015-0.010-0.019 0.038-0.002 0.173 0.017 0.298 0.044zM17.256 11.479c-0.057 0.007-0.104 0.026-0.104 0.043s-0.034 0.030-0.075 0.030c-0.041 0-0.085 0.010-0.098 0.023-0.032 0.032-0.308 0.102-0.404 0.103-0.069 0-0.062-0.008 0.046-0.059 0.077-0.037 0.108-0.065 0.080-0.074-0.025-0.008-0.017-0.010 0.018-0.005s0.143-0.010 0.24-0.033 0.226-0.042 0.288-0.041l0.112 0.002-0.104 0.013zM15.488 11.773c0.143 0.041-0.211 0.070-0.528 0.044-0.272-0.023-0.279-0.025-0.128-0.044 0.225-0.027 0.561-0.027 0.656-0zM17.248 11.772l0.176 0.022-0.288 0.024c-0.318 0.026-0.671-0.003-0.528-0.044 0.101-0.029 0.411-0.029 0.64-0.001zM16.976 12.008c0.417 0.123 0.347 0.164-0.087 0.051-0.307-0.080-0.472-0.165-0.262-0.135 0.069 0.010 0.226 0.048 0.35 0.084zM15.488 11.962c0 0.034-0.583 0.179-0.641 0.16-0.024-0.008 0.064-0.051 0.195-0.096 0.241-0.083 0.446-0.112 0.446-0.064zM16.99 12.297c0.080 0.055 0.15 0.111 0.156 0.125s0.035 0.027 0.064 0.028c0.029 0.001 0.038 0.009 0.020 0.016-0.073 0.031-0.783-0.374-0.783-0.446 0-0.027 0.389 0.171 0.542 0.276zM15.565 12.1c-0.067 0.074-0.621 0.364-0.621 0.325 0.001-0.047 0.581-0.387 0.669-0.392 0.007-0-0.014 0.030-0.048 0.067zM15.683 12.186c-0.052 0.097 0.011 0.154 0.073 0.066 0.029-0.041 0.052-0.060 0.052-0.041 0 0.052-0.128 0.304-0.228 0.451-0.050 0.074-0.092 0.149-0.092 0.168s-0.013 0.034-0.030 0.034c-0.016 0-0.036 0.025-0.044 0.056-0.011 0.044-0.015 0.041-0.018-0.013-0.002-0.038 0.007-0.074 0.020-0.080 0.049-0.022 0.198-0.379 0.18-0.434-0.014-0.043-0.011-0.046 0.013-0.013 0.041 0.057 0.085-0.009 0.049-0.072-0.020-0.034-0.094 0.020-0.307 0.224-0.267 0.256-0.462 0.388-0.24 0.162 0.058-0.059 0.172-0.179 0.253-0.267 0.125-0.134 0.307-0.294 0.341-0.298 0.005-0.001-0.005 0.025-0.022 0.057zM16.72 12.423c0.347 0.376 0.344 0.422-0.005 0.087-0.219-0.21-0.331-0.335-0.331-0.368 0-0.038 0.184 0.116 0.336 0.281zM16.421 12.376c0.142 0.224 0.251 0.439 0.251 0.494-0 0.052-0.241-0.304-0.308-0.455-0.027-0.062-0.063-0.137-0.079-0.168-0.071-0.134 0.029-0.039 0.136 0.128zM15.886 12.53c-0.029 0.105-0.060 0.223-0.069 0.263s-0.029 0.080-0.045 0.090c-0.015 0.010-0.030 0.056-0.032 0.104-0.002 0.055-0.009 0.066-0.018 0.030-0.018-0.069 0.068-0.456 0.142-0.64 0.073-0.182 0.088-0.082 0.022 0.155zM16.071 12.456c0.020 0.209-0.011 0.645-0.042 0.595-0.036-0.057-0.036-0.731 0-0.731 0.016 0 0.035 0.061 0.042 0.136zM16.248 12.424c0.032 0.090 0.136 0.515 0.136 0.554 0 0.008-0.014 0.014-0.032 0.014s-0.032-0.035-0.032-0.078c0-0.043-0.013-0.086-0.028-0.096-0.032-0.020-0.060-0.123-0.096-0.346-0.028-0.175-0.001-0.2 0.052-0.048zM8.823 14.387c-0.011 0.011-0.004 0.057 0.015 0.104s0.045 0.114 0.058 0.149c0.117 0.306 0.568 1.154 0.598 1.124 0.009-0.009-0.012-0.057-0.048-0.107-0.135-0.189-0.583-1.132-0.583-1.226 0-0.020 2.583-0.031 7.136-0.031 6.028 0 7.136 0.007 7.136 0.044 0 0.178-0.619 1.348-0.934 1.764-0.978 1.295-2.099 2.155-3.511 2.692-0.13 0.049-0.22 0.095-0.201 0.101 0.137 0.046 1.535-0.657 1.91-0.96 0.018-0.014 0.133-0.101 0.256-0.192 0.451-0.335 1.116-0.989 1.36-1.339 0.042-0.060 0.085-0.117 0.096-0.126s0.054-0.066 0.096-0.128c0.042-0.062 0.088-0.12 0.102-0.13 0.046-0.032 0.434-0.697 0.563-0.966 0.182-0.378 0.326-0.715 0.326-0.764 0-0.031-14.345-0.040-14.377-0.009zM9.524 15.84c0.249 0.509 1.174 1.526 1.823 2.005 0.052 0.038 0.162 0.121 0.246 0.184s0.159 0.115 0.167 0.115 0.126 0.072 0.261 0.161c0.257 0.168 0.967 0.527 0.992 0.502 0.008-0.008-0.163-0.102-0.379-0.209-1.14-0.565-2.029-1.312-2.785-2.341-0.297-0.404-0.355-0.479-0.324-0.416zM13.182 18.883c0.444 0.197 1.192 0.399 1.586 0.429 0.172 0.013 0.141 0.003-0.16-0.053-0.364-0.067-0.897-0.212-1.204-0.328-0.332-0.124-0.453-0.151-0.222-0.048zM18.16 19.077c-0.767 0.249-2.065 0.367-3.008 0.274-0.131-0.013-0.198-0.011-0.16 0.005 0.066 0.028 0.924 0.081 1.152 0.071 0.778-0.034 1.359-0.121 1.952-0.291 0.070-0.020 0.168-0.044 0.216-0.054 0.090-0.017 0.158-0.076 0.082-0.070-0.023 0.002-0.128 0.031-0.234 0.065z"></path>
</svg>
